<svg width="267" height="71" viewBox="0 0 267 71" fill="none" xmlns="http://www.w3.org/2000/svg">
<path d="M267 0H0V71H267V0Z" fill="black"/>
<path d="M90.3687 8.35281H8.21484V62.6469H90.3687V8.35281Z" fill="white"/>
<path d="M258.786 8.35281H178.686V62.6469H258.786V8.35281Z" fill="white"/>
<path d="M21.3516 25.7766H21.1892L18.6138 42.5127L18.603 42.5982H18.695H23.8025H23.8945L23.8837 42.5127L21.3516 25.7766ZM18.0403 46.9697H17.97L17.9592 47.035L16.758 54.3995H11.9697L18.7166 16.5609H23.7863L30.4304 54.3995H25.6421L24.4897 47.0401L24.4788 46.9747H24.4085H18.0403V46.9697ZM42.9936 41.1243V41.0489H42.9125H39.9583V36.6272H47.7332V46.1296C47.7332 48.7001 46.9271 50.8581 45.5474 52.3773C44.1677 53.8915 42.2037 54.7718 39.8772 54.7718C37.5777 54.7718 35.6299 53.8915 34.2556 52.3773C32.8814 50.8581 32.0752 48.7001 32.0752 46.1296V24.9818C32.0752 22.3861 32.8814 20.1979 34.2556 18.6586C35.6299 17.1244 37.5777 16.2289 39.8772 16.2289C44.395 16.2289 47.598 19.6999 47.7278 24.6901H42.9882C42.972 23.4023 42.6095 22.527 42.036 21.9736C41.457 21.4102 40.6725 21.1889 39.8718 21.1889C39.071 21.1889 38.3027 21.4102 37.7346 21.9736C37.1665 22.5371 36.8094 23.4325 36.8094 24.7605V46.2855C36.8094 47.6991 37.2152 48.6096 37.8104 49.1629C38.4055 49.7213 39.1738 49.9124 39.8718 49.9124C40.6725 49.9124 41.4516 49.6911 42.036 49.1227C42.6149 48.5542 42.9882 47.6437 42.9882 46.2855V41.1243H42.9936ZM56.6119 44.1728H56.5307V44.2482V54.3995H51.7424V16.6113H59.2414C61.5463 16.6113 63.4941 17.4111 64.8629 18.9504C66.2372 20.4947 67.0434 22.7886 67.0434 25.7917V34.7257C67.0434 38.9613 65.5338 41.4564 63.1911 42.7341L63.137 42.7642L63.1586 42.8196L67.1678 54.3995H61.9791C61.622 53.4639 61.0052 51.4065 60.383 49.344V49.339C59.75 47.2413 59.1224 45.1436 58.7653 44.2281L58.7491 44.1778H58.6895H56.6119V44.1728ZM56.5307 39.243V39.3184H56.6119H58.6354C59.6039 39.3184 60.5453 39.1424 61.2379 38.4281C61.9304 37.7137 62.3579 36.4813 62.3579 34.4037V25.7867C62.3579 24.0814 61.9142 23.0099 61.2163 22.361C60.5183 21.7171 59.5823 21.5109 58.6408 21.5109H56.6173H56.5362V21.5863V39.243H56.5307ZM85.7908 46.1296C85.7908 51.2103 82.5283 54.7718 77.9347 54.7718C75.6082 54.7718 73.6496 53.8814 72.2645 52.3572C70.8848 50.833 70.0787 48.6699 70.0787 46.1296V24.9818C70.0787 22.4113 70.8848 20.2382 72.2645 18.7089C73.6442 17.1797 75.6082 16.2893 77.9347 16.2893C80.2342 16.2893 82.1982 17.1797 83.5833 18.7089C84.9738 20.2382 85.7854 22.4163 85.7854 24.9818V46.1296H85.7908ZM81.0025 24.7655C81.0025 23.4375 80.6454 22.5421 80.0773 21.9787C79.5092 21.4153 78.7409 21.1939 77.9402 21.1939C77.1178 21.1939 76.3332 21.4153 75.7597 21.9787C75.1862 22.5421 74.8291 23.4375 74.8291 24.7705V46.2956C74.8291 47.6286 75.197 48.524 75.7814 49.0875C76.3603 49.6509 77.1448 49.8722 77.9456 49.8722C78.7193 49.8722 79.4876 49.6509 80.0665 49.0875C80.64 48.524 81.0133 47.6286 81.0133 46.2956V24.7655H81.0025Z" fill="black" stroke="white" stroke-width="1.5"/>
<path d="M142.137 54.3224V54.6508H142.451H144.999C146.068 54.6508 147.185 54.3607 148.028 53.4303C148.867 52.5054 149.386 51.0004 149.386 48.6909V24.3262C149.386 22.0824 148.883 20.5992 148.049 19.6743C147.216 18.744 146.1 18.4375 144.999 18.4375H142.451H142.137V18.7659V54.3224ZM164.184 54.2513V54.5796H164.498H173.577V60.3753H159.325V12.6418H173.577V18.4375H164.498H164.184V18.7659V33.11V33.4383H164.498H171.203V38.6867H164.498H164.184V39.0151V54.2513ZM110.911 23.0237V24.7531H105.994V22.8157C105.994 21.048 105.57 19.8221 104.878 19.0395C104.181 18.2514 103.253 17.9559 102.341 17.9559C101.403 17.9559 100.459 18.2514 99.7567 19.0395C99.0543 19.8221 98.6297 21.048 98.6297 22.8157V50.2726C98.6297 52.0403 99.0543 53.2497 99.7567 54.0159C100.464 54.7876 101.403 55.0612 102.341 55.0612C103.274 55.0612 104.207 54.7876 104.899 54.0159C105.586 53.2497 105.994 52.0348 105.994 50.2726V48.0616H110.911V50.0646C110.911 56.4623 107.326 60.8569 102.341 60.8569C99.8038 60.8569 97.6704 59.7514 96.166 57.8633C94.6564 55.9697 93.7705 53.2662 93.7705 50.0701V23.0291C93.7705 19.7947 94.6564 17.0748 96.166 15.1757C97.6704 13.2767 99.8038 12.1712 102.341 12.1712C104.846 12.1712 106.98 13.2767 108.495 15.1757C110.01 17.0693 110.911 19.7893 110.911 23.0237ZM132.072 50.0646C132.072 56.4623 128.482 60.8569 123.502 60.8569C120.965 60.8569 118.832 59.7514 117.327 57.8633C115.818 55.9697 114.932 53.2662 114.932 50.0701V23.0893C114.932 19.8549 115.818 17.135 117.327 15.2359C118.832 13.3369 120.965 12.2314 123.502 12.2314C126.008 12.2314 128.141 13.3369 129.656 15.2359C131.171 17.1404 132.072 19.8604 132.072 23.0893V50.0646ZM127.156 22.8157C127.156 21.0863 126.747 19.8768 126.06 19.0997C125.368 18.3226 124.44 18.027 123.502 18.027C122.538 18.027 121.594 18.3226 120.897 19.0997C120.2 19.8768 119.796 21.0863 119.796 22.8157V50.2726C119.796 52.0074 120.221 53.2169 120.923 53.9886C121.625 54.7657 122.569 55.0612 123.507 55.0612C124.419 55.0612 125.347 54.7657 126.044 53.9886C126.736 53.2114 127.161 52.0074 127.161 50.2726V22.8157H127.156ZM145.675 60.3753H137.278V12.6418H145.675C148.186 12.6418 150.303 13.6652 151.797 15.6135C153.297 17.5728 154.188 20.4952 154.188 24.3207V48.7566C154.188 52.6204 153.291 55.5264 151.797 57.4583C150.309 59.3847 148.196 60.3753 145.675 60.3753Z" fill="white" stroke="black" stroke-width="1.5"/>
<path d="M194.82 38.3236H194.742V38.4043V56.4026H189.541V16.2289H194.742V33.4854V33.566H194.82H200.944H201.022V33.4854V16.2289H206.171V56.4026H201.022V38.4043V38.3236H200.944H194.82ZM240.954 56.4026H232.941V16.2289H240.732C243.235 16.2289 245.335 16.8848 246.806 18.175C248.276 19.4652 249.128 21.4005 249.128 23.9863V29.9911C249.128 31.6146 248.87 32.8564 248.379 33.7972C247.889 34.7379 247.167 35.3831 246.223 35.8077L246.052 35.883L246.223 35.9583C247.224 36.383 248.013 36.9904 248.555 37.9258C249.097 38.8666 249.396 40.1514 249.396 41.9469V48.8119C249.396 51.3923 248.545 53.2846 247.069 54.5372C245.593 55.7897 243.483 56.4026 240.954 56.4026ZM238.085 51.1611V51.2418H238.163H240.784C241.744 51.2418 242.616 51.1127 243.245 50.602C243.88 50.086 244.252 49.1989 244.252 47.726V41.49C244.252 40.0761 243.906 39.2053 243.307 38.6892C242.714 38.1785 241.883 38.0333 240.949 38.0333H238.163H238.085V38.114V51.1611ZM238.085 33.7703V33.8509H238.163H240.732C241.635 33.8509 242.466 33.738 243.07 33.222C243.679 32.7059 244.035 31.8027 244.035 30.276V25.0668C244.035 23.5992 243.705 22.6799 243.085 22.137C242.466 21.594 241.584 21.4381 240.516 21.4381H238.168H238.091V21.5188V33.7703H238.085ZM219.603 51.5858C220.408 51.5858 221.233 51.3708 221.863 50.7848C222.492 50.1988 222.905 49.2635 222.905 47.8442V16.2289H228.055V47.6131C228.055 53.005 224.536 56.8004 219.603 56.8004C217.079 56.8004 214.954 55.8489 213.462 54.2307C211.966 52.6126 211.099 50.3117 211.099 47.6131V16.2289H216.249V47.8442C216.249 49.3226 216.692 50.2634 217.343 50.8278C217.988 51.3977 218.829 51.5858 219.603 51.5858Z" fill="black" stroke="white" stroke-width="1.5"/>
</svg>
