<svg width="1920" height="15047" viewBox="0 0 1920 15047" fill="none" xmlns="http://www.w3.org/2000/svg">
<rect width="1920" height="16374" fill="#0E0E12"/>
<g clip-path="url(#clip0_167_2333)">
<path d="M5186.7 9097.53C6285.86 8348.27 5697.01 5569.89 3871.47 2891.83C2045.93 213.772 -325.003 -1349.83 -1424.16 -600.572C-2523.32 148.686 -1934.47 2927.07 -108.931 5605.13C1716.61 8283.19 4087.54 9846.79 5186.7 9097.53Z" fill="url(#paint0_radial_167_2333)"/>
</g>
<g clip-path="url(#clip1_167_2333)">
<path d="M5186.7 9097.53C6285.86 8348.27 5697.01 5569.89 3871.47 2891.83C2045.93 213.772 -325.003 -1349.83 -1424.16 -600.572C-2523.32 148.686 -1934.47 2927.07 -108.931 5605.13C1716.61 8283.19 4087.54 9846.79 5186.7 9097.53Z" fill="url(#paint1_radial_167_2333)"/>
</g>
<g clip-path="url(#clip2_167_2333)">
<path d="M5186.7 9097.53C6285.86 8348.27 5697.01 5569.89 3871.47 2891.83C2045.93 213.772 -325.003 -1349.83 -1424.16 -600.572C-2523.32 148.686 -1934.47 2927.07 -108.931 5605.13C1716.61 8283.19 4087.54 9846.79 5186.7 9097.53Z" fill="url(#paint2_radial_167_2333)"/>
</g>
<g clip-path="url(#clip3_167_2333)">
<path d="M5186.7 9097.53C6285.86 8348.27 5697.01 5569.89 3871.47 2891.83C2045.93 213.771 -325.003 -1349.83 -1424.16 -600.572C-2523.32 148.686 -1934.47 2927.07 -108.931 5605.13C1716.61 8283.19 4087.54 9846.79 5186.7 9097.53Z" fill="url(#paint3_radial_167_2333)"/>
</g>
<g clip-path="url(#clip4_167_2333)">
<path d="M5186.7 9097.54C6285.86 8348.28 5697.01 5569.89 3871.47 2891.83C2045.93 213.775 -325.003 -1349.83 -1424.16 -600.568C-2523.32 148.69 -1934.47 2927.08 -108.931 5605.13C1716.61 8283.19 4087.54 9846.79 5186.7 9097.54Z" fill="url(#paint4_radial_167_2333)"/>
</g>
<g clip-path="url(#clip5_167_2333)">
<path d="M5186.7 9097.53C6285.86 8348.27 5697.01 5569.89 3871.47 2891.83C2045.93 213.771 -325.003 -1349.83 -1424.16 -600.572C-2523.32 148.686 -1934.47 2927.07 -108.931 5605.13C1716.61 8283.19 4087.54 9846.79 5186.7 9097.53Z" fill="url(#paint5_radial_167_2333)"/>
</g>
<g clip-path="url(#clip6_167_2333)">
<path d="M5186.7 9097.53C6285.86 8348.27 5697.01 5569.89 3871.47 2891.83C2045.93 213.771 -325.003 -1349.83 -1424.16 -600.572C-2523.32 148.686 -1934.47 2927.07 -108.931 5605.13C1716.61 8283.19 4087.54 9846.79 5186.7 9097.53Z" fill="url(#paint6_radial_167_2333)"/>
</g>
<g clip-path="url(#clip7_167_2333)">
<path d="M5186.7 9097.53C6285.86 8348.27 5697.01 5569.89 3871.47 2891.83C2045.93 213.771 -325.003 -1349.83 -1424.16 -600.572C-2523.32 148.686 -1934.47 2927.07 -108.931 5605.13C1716.61 8283.19 4087.54 9846.79 5186.7 9097.53Z" fill="url(#paint7_radial_167_2333)"/>
<path d="M2140.46 15673.2C3134.69 14995.5 2982.52 13040.5 1800.56 11306.5C618.609 9572.62 -1145.54 8716.41 -2139.77 9394.15C-3134.01 10071.9 -2981.83 12026.9 -1799.88 13760.8C-617.927 15494.8 1146.22 16351 2140.46 15673.2Z" fill="url(#paint8_radial_167_2333)"/>
</g>
<g clip-path="url(#clip8_167_2333)">
<path d="M5186.7 9097.53C6285.86 8348.27 5697.01 5569.89 3871.47 2891.83C2045.93 213.771 -325.003 -1349.83 -1424.16 -600.572C-2523.32 148.686 -1934.47 2927.07 -108.931 5605.13C1716.61 8283.19 4087.54 9846.79 5186.7 9097.53Z" fill="url(#paint9_radial_167_2333)"/>
<path d="M2140.46 15673.2C3134.69 14995.5 2982.52 13040.5 1800.56 11306.5C618.609 9572.62 -1145.54 8716.41 -2139.77 9394.15C-3134.01 10071.9 -2981.83 12026.9 -1799.88 13760.8C-617.927 15494.8 1146.22 16351 2140.46 15673.2Z" fill="url(#paint10_radial_167_2333)"/>
</g>
<g clip-path="url(#clip9_167_2333)">
<path d="M2140.46 15673.2C3134.69 14995.5 2982.52 13040.5 1800.56 11306.5C618.609 9572.62 -1145.54 8716.41 -2139.77 9394.15C-3134.01 10071.9 -2981.83 12026.9 -1799.88 13760.8C-617.927 15494.8 1146.22 16351 2140.46 15673.2Z" fill="url(#paint11_radial_167_2333)"/>
</g>
<g clip-path="url(#clip10_167_2333)">
<path d="M2140.46 15673.2C3134.69 14995.5 2982.52 13040.5 1800.56 11306.5C618.609 9572.62 -1145.54 8716.42 -2139.77 9394.15C-3134.01 10071.9 -2981.83 12026.9 -1799.88 13760.8C-617.927 15494.8 1146.22 16351 2140.46 15673.2Z" fill="url(#paint12_radial_167_2333)"/>
</g>
<g clip-path="url(#clip11_167_2333)">
<path d="M2140.46 15673.2C3134.69 14995.5 2982.52 13040.5 1800.56 11306.5C618.609 9572.62 -1145.54 8716.42 -2139.77 9394.15C-3134.01 10071.9 -2981.83 12026.9 -1799.88 13760.8C-617.927 15494.8 1146.22 16351 2140.46 15673.2Z" fill="url(#paint13_radial_167_2333)"/>
</g>
<g clip-path="url(#clip12_167_2333)">
<path d="M2140.46 15673.2C3134.69 14995.5 2982.52 13040.5 1800.56 11306.5C618.609 9572.62 -1145.54 8716.41 -2139.77 9394.15C-3134.01 10071.9 -2981.83 12026.9 -1799.88 13760.8C-617.927 15494.8 1146.22 16351 2140.46 15673.2Z" fill="url(#paint14_radial_167_2333)"/>
</g>
<defs>
<radialGradient id="paint0_radial_167_2333" cx="0" cy="0" r="1" gradientUnits="userSpaceOnUse" gradientTransform="translate(1881.27 4248.48) rotate(55.7191) scale(5868.49 2408.61)">
<stop stop-color="#591EA5"/>
<stop offset="1" stop-color="#291A5F" stop-opacity="0"/>
</radialGradient>
<radialGradient id="paint1_radial_167_2333" cx="0" cy="0" r="1" gradientUnits="userSpaceOnUse" gradientTransform="translate(1881.27 4248.48) rotate(55.7191) scale(5868.49 2408.61)">
<stop stop-color="#591EA5"/>
<stop offset="1" stop-color="#291A5F" stop-opacity="0"/>
</radialGradient>
<radialGradient id="paint2_radial_167_2333" cx="0" cy="0" r="1" gradientUnits="userSpaceOnUse" gradientTransform="translate(1881.27 4248.48) rotate(55.7191) scale(5868.49 2408.61)">
<stop stop-color="#591EA5"/>
<stop offset="1" stop-color="#291A5F" stop-opacity="0"/>
</radialGradient>
<radialGradient id="paint3_radial_167_2333" cx="0" cy="0" r="1" gradientUnits="userSpaceOnUse" gradientTransform="translate(1881.27 4248.48) rotate(55.7191) scale(5868.49 2408.61)">
<stop stop-color="#591EA5"/>
<stop offset="1" stop-color="#291A5F" stop-opacity="0"/>
</radialGradient>
<radialGradient id="paint4_radial_167_2333" cx="0" cy="0" r="1" gradientUnits="userSpaceOnUse" gradientTransform="translate(1881.27 4248.48) rotate(55.7191) scale(5868.49 2408.61)">
<stop stop-color="#591EA5"/>
<stop offset="1" stop-color="#291A5F" stop-opacity="0"/>
</radialGradient>
<radialGradient id="paint5_radial_167_2333" cx="0" cy="0" r="1" gradientUnits="userSpaceOnUse" gradientTransform="translate(1881.27 4248.48) rotate(55.7191) scale(5868.49 2408.61)">
<stop stop-color="#591EA5"/>
<stop offset="1" stop-color="#291A5F" stop-opacity="0"/>
</radialGradient>
<radialGradient id="paint6_radial_167_2333" cx="0" cy="0" r="1" gradientUnits="userSpaceOnUse" gradientTransform="translate(1881.27 4248.48) rotate(55.7191) scale(5868.49 2408.61)">
<stop stop-color="#591EA5"/>
<stop offset="1" stop-color="#291A5F" stop-opacity="0"/>
</radialGradient>
<radialGradient id="paint7_radial_167_2333" cx="0" cy="0" r="1" gradientUnits="userSpaceOnUse" gradientTransform="translate(1881.27 4248.48) rotate(55.7191) scale(5868.49 2408.61)">
<stop stop-color="#591EA5"/>
<stop offset="1" stop-color="#291A5F" stop-opacity="0"/>
</radialGradient>
<radialGradient id="paint8_radial_167_2333" cx="0" cy="0" r="1" gradientUnits="userSpaceOnUse" gradientTransform="translate(0.341062 12533.7) rotate(55.7191) scale(3799.58 2178.69)">
<stop stop-color="#591EA5"/>
<stop offset="1" stop-color="#291A5F" stop-opacity="0"/>
</radialGradient>
<radialGradient id="paint9_radial_167_2333" cx="0" cy="0" r="1" gradientUnits="userSpaceOnUse" gradientTransform="translate(1881.27 4248.48) rotate(55.7191) scale(5868.49 2408.61)">
<stop stop-color="#591EA5"/>
<stop offset="1" stop-color="#291A5F" stop-opacity="0"/>
</radialGradient>
<radialGradient id="paint10_radial_167_2333" cx="0" cy="0" r="1" gradientUnits="userSpaceOnUse" gradientTransform="translate(0.341062 12533.7) rotate(55.7191) scale(3799.58 2178.69)">
<stop stop-color="#591EA5"/>
<stop offset="1" stop-color="#291A5F" stop-opacity="0"/>
</radialGradient>
<radialGradient id="paint11_radial_167_2333" cx="0" cy="0" r="1" gradientUnits="userSpaceOnUse" gradientTransform="translate(0.341062 12533.7) rotate(55.7191) scale(3799.58 2178.69)">
<stop stop-color="#591EA5"/>
<stop offset="1" stop-color="#291A5F" stop-opacity="0"/>
</radialGradient>
<radialGradient id="paint12_radial_167_2333" cx="0" cy="0" r="1" gradientUnits="userSpaceOnUse" gradientTransform="translate(0.341062 12533.7) rotate(55.7191) scale(3799.58 2178.69)">
<stop stop-color="#591EA5"/>
<stop offset="1" stop-color="#291A5F" stop-opacity="0"/>
</radialGradient>
<radialGradient id="paint13_radial_167_2333" cx="0" cy="0" r="1" gradientUnits="userSpaceOnUse" gradientTransform="translate(0.341062 12533.7) rotate(55.7191) scale(3799.58 2178.69)">
<stop stop-color="#591EA5"/>
<stop offset="1" stop-color="#291A5F" stop-opacity="0"/>
</radialGradient>
<radialGradient id="paint14_radial_167_2333" cx="0" cy="0" r="1" gradientUnits="userSpaceOnUse" gradientTransform="translate(0.341062 12533.7) rotate(55.7191) scale(3799.58 2178.69)">
<stop stop-color="#591EA5"/>
<stop offset="1" stop-color="#291A5F" stop-opacity="0"/>
</radialGradient>
<clipPath id="clip0_167_2333">
<rect width="1920" height="1080" fill="white"/>
</clipPath>
<clipPath id="clip1_167_2333">
<rect width="1920" height="1080" fill="white" transform="translate(0 1080)"/>
</clipPath>
<clipPath id="clip2_167_2333">
<rect width="1920" height="1080" fill="white" transform="translate(0 2160)"/>
</clipPath>
<clipPath id="clip3_167_2333">
<rect width="1920" height="1080" fill="white" transform="translate(0 3240)"/>
</clipPath>
<clipPath id="clip4_167_2333">
<rect width="1920" height="1080" fill="white" transform="translate(0 4320)"/>
</clipPath>
<clipPath id="clip5_167_2333">
<rect width="1920" height="1080" fill="white" transform="translate(0 5400)"/>
</clipPath>
<clipPath id="clip6_167_2333">
<rect width="1920" height="1080" fill="white" transform="translate(0 6480)"/>
</clipPath>
<clipPath id="clip7_167_2333">
<rect width="1920" height="1080" fill="white" transform="translate(0 8814)"/>
</clipPath>
<clipPath id="clip8_167_2333">
<rect width="1920" height="1080" fill="white" transform="translate(0 9894)"/>
</clipPath>
<clipPath id="clip9_167_2333">
<rect width="1920" height="1080" fill="white" transform="translate(0 10974)"/>
</clipPath>
<clipPath id="clip10_167_2333">
<rect width="1920" height="1080" fill="white" transform="translate(0 12054)"/>
</clipPath>
<clipPath id="clip11_167_2333">
<rect width="1920" height="1080" fill="white" transform="translate(0 13134)"/>
</clipPath>
<clipPath id="clip12_167_2333">
<rect width="1920" height="1080" fill="white" transform="translate(0 14214)"/>
</clipPath>
</defs>
</svg>
