<svg width="160" height="38" viewBox="0 0 160 38" fill="none" xmlns="http://www.w3.org/2000/svg">
<path d="M42.6756 15.3896C43.6327 15.3896 44.6979 15.4226 45.6217 16.0398C46.2376 16.4431 46.9617 17.2415 46.9617 18.6653C46.9617 20.2291 45.9546 22.0727 43.1916 22.0727H40.8613V26.3607H38.8223V15.3896H42.6756ZM42.7505 20.4678C43.1999 20.4678 43.8491 20.4842 44.3734 20.0069C44.7312 19.6859 44.9227 19.1427 44.9227 18.6818C44.9227 18.2538 44.7479 17.7353 44.39 17.4308C44.0321 17.1262 43.4662 16.9863 42.8337 16.9863H40.8613V20.476H42.7505V20.4678Z" fill="white"/>
<path d="M48.8373 19.0365C49.4033 18.5097 50.2438 18.0488 51.5088 18.0488C52.7739 18.0488 53.6144 18.5097 54.1804 19.0365C55.0209 19.8183 55.4537 21.0364 55.4537 22.2792C55.4537 23.522 55.0209 24.7401 54.1804 25.522C53.6144 26.0487 52.7739 26.5178 51.5088 26.5178C50.2522 26.5178 49.4033 26.0569 48.8373 25.522C47.9968 24.7401 47.5557 23.522 47.5557 22.2792C47.5557 21.0364 47.9968 19.8183 48.8373 19.0365ZM50.2105 24.5837C50.3853 24.7895 50.7931 25.1763 51.5005 25.1763C52.2163 25.1763 52.6157 24.7977 52.7905 24.5837C52.9237 24.4438 53.4064 23.8018 53.4064 22.2792C53.4064 20.7566 52.9237 20.1229 52.7905 19.9747C52.6157 19.769 52.2079 19.3821 51.5005 19.3821C50.7931 19.3821 50.3853 19.7607 50.2105 19.9747C50.0857 20.1229 49.5947 20.7566 49.5947 22.2792C49.5947 23.7936 50.0857 24.4356 50.2105 24.5837Z" fill="white"/>
<path d="M61.8959 21.1921C61.8627 20.7806 61.7045 20.295 61.4881 19.9905C61.2967 19.7024 60.9056 19.3814 60.2647 19.3814C59.6322 19.3814 59.2078 19.7024 58.9498 20.1304C58.542 20.7888 58.517 21.8094 58.517 22.2785C58.517 23.0275 58.6252 23.9246 58.9498 24.4349C59.1578 24.7558 59.5823 25.1673 60.2647 25.1673C60.7474 25.1673 61.1469 24.9781 61.4632 24.5583C61.7045 24.2209 61.871 23.7435 61.9043 23.3238L63.6187 23.5295C63.5188 24.2785 63.1859 25.118 62.5867 25.6529C62.0874 26.0974 61.3051 26.5007 60.2065 26.5007C58.9831 26.5007 58.1841 26.0233 57.7181 25.5871C57.0856 24.9945 56.4863 23.941 56.4863 22.2785C56.4863 20.7312 57.019 19.8012 57.4351 19.3074C58.0343 18.5996 59.0497 18.0234 60.2481 18.0234C61.2634 18.0234 62.1123 18.3773 62.6366 18.9205C63.1693 19.4473 63.4939 20.2456 63.6104 20.9617L61.8959 21.1921Z" fill="white"/>
<path d="M69.9194 21.1921C69.8861 20.7806 69.728 20.295 69.5199 19.9905C69.3285 19.7024 68.9373 19.3814 68.2882 19.3814C67.6557 19.3814 67.2395 19.7024 66.9815 20.1304C66.5821 20.7888 66.5488 21.8094 66.5488 22.2785C66.5488 23.0275 66.6653 23.9246 66.9815 24.4349C67.1896 24.7558 67.6141 25.1673 68.2882 25.1673C68.7709 25.1673 69.1787 24.9781 69.4866 24.5583C69.728 24.2209 69.8861 23.7435 69.9194 23.3238L71.6338 23.5295C71.5339 24.2785 71.2011 25.118 70.6018 25.6529C70.0942 26.0974 69.3285 26.5007 68.2216 26.5007C66.9899 26.5007 66.1992 26.0233 65.7332 25.5871C65.1007 24.9945 64.5098 23.941 64.5098 22.2785C64.5098 20.7312 65.0424 19.8012 65.4669 19.3074C66.0578 18.5996 67.0814 18.0234 68.2799 18.0234C69.2952 18.0234 70.1358 18.3773 70.6767 18.9205C71.2094 19.4473 71.534 20.2456 71.6505 20.9617L69.9194 21.1921Z" fill="white"/>
<path d="M80.2756 23.9906C79.9843 24.9453 79.4018 25.5049 78.9191 25.8424C78.2699 26.2786 77.4293 26.5173 76.5388 26.5173C75.4236 26.5173 74.2918 26.0481 73.6093 25.365C72.9768 24.7313 72.5107 23.6202 72.5107 22.3116C72.5107 20.6491 73.2098 19.5462 73.9672 18.9207C74.4083 18.5585 75.2322 18.04 76.4723 18.04C78.0452 18.04 79.0439 18.7561 79.5765 19.4968C80.1425 20.2622 80.4005 21.3404 80.4005 22.2622V22.6326H74.5498C74.5498 22.7231 74.5331 23.4638 74.8244 24.0564C75.2572 24.9535 76.0561 25.1757 76.6054 25.1757C77.0465 25.1757 77.5875 25.044 78.0452 24.5831C78.3198 24.2951 78.428 24.0235 78.478 23.7683L80.2756 23.9906ZM78.3698 21.4145C78.3698 20.9536 78.2616 20.4268 78.0119 20.0729C77.704 19.6285 77.1547 19.324 76.5555 19.324C75.9396 19.324 75.407 19.6285 75.0824 20.0071C74.8244 20.3281 74.5997 20.8219 74.5997 21.4145H78.3698Z" fill="white"/>
<path d="M88.3972 18.2055V26.3617H86.5163V19.58H84.3857C84.3358 20.6828 84.3025 21.1273 84.2692 21.8844C84.2193 22.7322 84.1527 24.5181 83.4286 25.4976C83.0292 26.0243 82.5298 26.2301 82.1719 26.3288C81.9639 26.3947 81.7392 26.4276 81.5061 26.4276C81.348 26.4276 81.1816 26.4111 81.0234 26.3617V24.9461H81.1816C81.4229 24.9297 81.7475 24.8062 81.9639 24.6416C82.613 24.1313 82.6713 22.9791 82.7379 22.0655C82.8211 20.8639 82.8377 20.1479 82.8461 19.0615L82.8627 18.1973H88.3972V18.2055Z" fill="white"/>
<path d="M92.2442 21.1094H94.3165C94.8491 21.1094 95.8894 21.1752 96.5635 21.8501C97.1794 22.4427 97.2377 23.274 97.2377 23.7184C97.2377 24.8871 96.755 25.4797 96.3804 25.7842C96.2473 25.883 95.6397 26.3603 94.4663 26.3603H90.3633V18.2041H92.2358V21.1094H92.2442ZM92.2442 25.0106H93.7172C94.0751 25.0106 94.4579 24.9941 94.7825 24.7225C94.9739 24.5414 95.207 24.2452 95.207 23.7266C95.207 23.2822 95.0738 22.9283 94.7076 22.6896C94.383 22.4839 93.9752 22.4509 93.7172 22.4509H92.2442V25.0106Z" fill="white"/>
<path d="M99.9669 18.2041L101.49 20.739L103.071 18.2041H104.786L102.372 21.8913L105.235 26.3521H103.038L101.165 23.2822L99.193 26.3521H97.4785L100.292 22.1217L97.7698 18.2041H99.9669Z" fill="white"/>
<path d="M106.686 19.0365C107.252 18.5097 108.092 18.0488 109.349 18.0488C110.614 18.0488 111.455 18.5097 112.021 19.0365C112.861 19.8183 113.294 21.0364 113.294 22.2792C113.294 23.522 112.853 24.7401 112.021 25.522C111.455 26.0487 110.614 26.5178 109.349 26.5178C108.084 26.5178 107.252 26.0569 106.686 25.522C105.845 24.7401 105.404 23.522 105.404 22.2792C105.413 21.0364 105.845 19.8183 106.686 19.0365ZM108.059 24.5837C108.234 24.7895 108.642 25.1763 109.349 25.1763C110.065 25.1763 110.464 24.7977 110.647 24.5837C110.772 24.4438 111.263 23.8018 111.263 22.2792C111.263 20.7566 110.781 20.1229 110.647 19.9747C110.473 19.769 110.065 19.3821 109.349 19.3821C108.642 19.3821 108.234 19.7607 108.059 19.9747C107.934 20.1229 107.443 20.7566 107.443 22.2792C107.443 23.7936 107.934 24.4356 108.059 24.5837Z" fill="white"/>
<path d="M114.299 20.4109C114.541 19.4233 115.173 18.8801 115.622 18.6085C115.897 18.4357 116.654 18.0488 117.953 18.0488C118.76 18.0488 119.584 18.1887 120.2 18.5262C121.107 19.02 121.332 19.736 121.332 20.2546C121.332 20.8142 121.057 21.8842 119.651 22.0405V22.0735C120.133 22.1393 120.674 22.345 120.99 22.6825C121.282 22.987 121.506 23.4973 121.506 24.0405C121.506 24.8553 121.024 25.5796 120.408 25.9746C119.667 26.452 118.644 26.5178 117.886 26.5178C117.121 26.5178 115.964 26.4355 115.148 25.8018C114.699 25.4479 114.274 24.8388 114.149 24.0734L115.847 23.7854C115.914 24.0405 116.055 24.4273 116.255 24.6495C116.671 25.1351 117.337 25.1763 117.761 25.1763C118.177 25.1763 118.635 25.1269 118.985 24.8882C119.309 24.666 119.467 24.3615 119.467 23.9582C119.467 23.6208 119.401 23.3492 119.118 23.1105C118.743 22.806 118.244 22.7566 117.778 22.7566H116.921V21.5056H117.778C118.103 21.5056 118.569 21.4397 118.827 21.3163C119.168 21.1434 119.359 20.8554 119.359 20.3862C119.359 20.1311 119.259 19.8842 119.018 19.6949C118.644 19.3904 118.111 19.3739 117.836 19.3739C117.462 19.3739 116.912 19.4233 116.463 19.8019C116.272 19.9583 116.014 20.2628 115.93 20.7484L114.299 20.4109Z" fill="white"/>
<path d="M131.105 17.3073H125.753V19.7353H128.134C128.991 19.7353 129.815 19.8011 130.655 20.3772C131.479 20.9369 131.995 21.7681 131.995 22.9698C131.995 24.0891 131.579 24.9204 131.038 25.4471C130.231 26.2454 129.307 26.3607 128.342 26.3607H123.165V15.3896H131.105V17.3073ZM125.753 24.4348H127.842C128.233 24.4348 128.591 24.4183 128.957 24.0479C129.315 23.694 129.365 23.299 129.365 22.9945C129.365 22.6406 129.265 22.2949 128.957 21.9904C128.591 21.6282 128.117 21.5871 127.776 21.5871H125.753V24.4348Z" fill="white"/>
<path d="M133.325 20.4768C133.583 19.3739 134.315 18.8142 134.748 18.5591C135.389 18.1887 136.246 18.0488 137.311 18.0488C138.668 18.0488 140.05 18.2217 140.657 19.4891C140.982 20.1393 140.948 20.8471 140.948 21.4562V24.6084C140.948 25.2668 141.048 25.8759 141.19 26.3697H138.843C138.776 26.0487 138.735 25.6207 138.718 25.0775C138.41 25.6207 137.669 26.5343 135.955 26.5343C135.198 26.5343 134.415 26.345 133.883 25.9088C133.367 25.489 133.042 24.8224 133.042 24.0899C133.042 23.2751 133.4 22.2957 134.806 21.7195C135.714 21.3492 137.187 21.2257 137.852 21.1928L138.626 21.1599V20.9871C138.626 20.7648 138.61 20.2875 138.385 20.0241C138.077 19.6702 137.461 19.662 137.22 19.662C136.887 19.662 136.479 19.6949 136.138 19.9006C135.93 20.0241 135.655 20.2875 135.555 20.7319L133.325 20.4768ZM137.902 22.5014C137.095 22.5673 136.288 22.6496 135.83 23.201C135.705 23.3574 135.572 23.6043 135.572 23.9335C135.572 24.2874 135.747 24.5261 135.93 24.6495C136.155 24.8224 136.496 24.9047 136.82 24.9047C137.303 24.9047 137.869 24.6989 138.194 24.3121C138.244 24.2627 138.626 23.7854 138.626 22.8553V22.4274L137.902 22.5014Z" fill="white"/>
<path d="M145.236 18.2041V21.2575H147.841V18.2041H150.246V26.3521H147.841V22.9283H145.236V26.3521H142.831V18.2041H145.236Z" fill="white"/>
<path d="M154.533 18.2055V21.3412H155.182C155.881 21.3412 156.173 21.0038 156.347 20.6334C156.689 19.9174 156.672 19.3577 156.98 18.7981C157.221 18.3536 157.546 18.2384 157.754 18.2055H159.743C159.485 18.4771 159.26 18.7981 159.11 19.0861C158.853 19.6129 158.611 20.4771 158.461 20.8474C158.27 21.3577 157.945 21.868 157.121 21.9338V21.9668C157.563 22.0326 158.012 22.2548 158.353 22.7486C158.561 23.0531 158.703 23.4482 158.936 24.0737C159.16 24.7157 159.26 24.9379 159.468 25.4317C159.635 25.8021 159.726 26.0243 160.001 26.3617H157.737C157.379 26.2465 157.138 26.0078 156.847 25.1766C156.622 24.5346 156.589 24.3124 156.439 23.9585L156.322 23.6704C156.081 23.0614 155.757 22.9297 155.257 22.9297H154.533V26.3535H152.128V18.1973H154.533V18.2055Z" fill="white"/>
<path fill-rule="evenodd" clip-rule="evenodd" d="M11.4951 21.168L15.1986 17.5714V15.127L11.4951 18.7071V21.168Z" fill="white"/>
<path fill-rule="evenodd" clip-rule="evenodd" d="M11.4951 12.0598L15.1986 8.45488V6.15039L11.4951 9.73058V12.0598Z" fill="white"/>
<path fill-rule="evenodd" clip-rule="evenodd" d="M11.4951 15.0691L15.1986 11.4725V9.16797L11.4951 12.7482V15.0691Z" fill="white"/>
<path fill-rule="evenodd" clip-rule="evenodd" d="M10.4335 6.18097L9.9425 5.70361V0H9.37657V5.16041L8.89386 4.68305V0H8.33625V4.14808L7.83691 3.67072V0H7.2793V5.44024L10.9911 9.03688V0H10.4335V6.18097Z" fill="white"/>
<path fill-rule="evenodd" clip-rule="evenodd" d="M11.4951 18.0891L15.1986 14.4842V12.1797L11.4951 15.7599V18.0891Z" fill="white"/>
<path fill-rule="evenodd" clip-rule="evenodd" d="M7.2793 17.5714L10.9911 21.168V18.7071L7.2793 15.127V17.5714Z" fill="white"/>
<path fill-rule="evenodd" clip-rule="evenodd" d="M14.641 3.67072L14.15 4.14808V0H13.5924V4.69128L13.1014 5.16041V0H12.5437V5.70361L12.0527 6.17274V0H11.4951V9.03688L15.1986 5.44024V0H14.641V3.67072Z" fill="white"/>
<path fill-rule="evenodd" clip-rule="evenodd" d="M7.2793 8.45488L10.9911 12.0598V9.73058L7.2793 6.15039V8.45488Z" fill="white"/>
<path fill-rule="evenodd" clip-rule="evenodd" d="M7.2793 11.4725L10.9911 15.0691V12.7482L7.2793 9.16797V11.4725Z" fill="white"/>
<path fill-rule="evenodd" clip-rule="evenodd" d="M7.2793 14.4842L10.9911 18.0891V15.7599L7.2793 12.1797V14.4842Z" fill="white"/>
<path fill-rule="evenodd" clip-rule="evenodd" d="M29.363 16.3861H20.7408H20.3497C20.5411 16.0898 20.6493 15.7441 20.6493 15.3737C20.6493 14.312 19.7754 13.4561 18.7018 13.4561C17.6282 13.4561 16.7627 14.3202 16.7627 15.3737C16.7627 15.7935 16.8959 16.1721 17.1289 16.4848C16.9624 16.5918 16.8459 16.7811 16.8459 17.0033C16.8459 17.2173 16.9624 17.4066 17.1289 17.5136C16.9042 17.8264 16.7627 18.2132 16.7627 18.6247C16.7627 19.6864 17.6282 20.5424 18.7018 20.5424C19.7754 20.5424 20.6493 19.6864 20.6493 18.6247C20.6493 18.2543 20.5411 17.9004 20.3497 17.6124H21.9809H27.0576V18.0157H26.3918V18.5835H27.0576V19.1679H26.3918V20.2461H27.0576V19.7605H28.0397V20.2461H28.6972V19.1679H28.0397V18.5835H28.6972V18.0157H28.0397V17.6124H29.363C29.6209 17.6124 29.829 17.3984 29.829 17.1432V16.8552C29.829 16.6 29.6209 16.3861 29.363 16.3861ZM19.7089 18.6247C19.7089 19.1679 19.2594 19.6123 18.7018 19.6123C18.1525 19.6123 17.7031 19.1679 17.7031 18.6247C17.7031 18.4272 17.7614 18.2379 17.8696 18.0815L18.1442 17.6124C17.9695 17.4642 17.8613 17.242 17.8613 16.9951C17.8613 16.7482 17.9695 16.526 18.1442 16.3778L17.8696 15.9087C17.7614 15.7523 17.7031 15.5712 17.7031 15.3655C17.7031 14.8223 18.1525 14.3779 18.7018 14.3779C19.2594 14.3779 19.7089 14.8223 19.7089 15.3655C19.7089 15.7688 19.2428 16.7317 19.2428 16.7317V17.2502C19.2428 17.2585 19.7089 18.2214 19.7089 18.6247Z" fill="white"/>
<path fill-rule="evenodd" clip-rule="evenodd" d="M3.91797 15.2178V17.6128C3.91797 19.9008 4.92499 21.3741 5.50756 21.9419C5.84879 22.2712 9.2943 25.6209 9.34423 25.6703C10.4178 26.7073 10.6009 27.053 10.8423 27.6373V24.9872C10.8423 22.6251 9.63552 21.7115 9.01134 21.1107C7.56322 19.7115 6.58949 18.7897 5.80718 18.0161C4.30913 16.5429 3.91797 15.2178 3.91797 15.2178Z" fill="white"/>
<path fill-rule="evenodd" clip-rule="evenodd" d="M9.00301 27.0285C7.5549 25.6212 6.58117 24.7076 5.79885 23.9339C4.30913 22.4607 3.91797 21.4648 3.91797 21.4648V23.5307C3.91797 25.8187 4.9666 27.2754 5.49924 27.8763C5.84047 28.2055 9.2943 31.547 9.33591 31.5881C10.4095 32.6251 10.5926 33.119 10.834 33.7033V30.905C10.834 28.5429 9.61888 27.6294 9.00301 27.0285Z" fill="white"/>
<path fill-rule="evenodd" clip-rule="evenodd" d="M16.645 4.42871C16.3787 4.42871 16.1123 4.43694 15.846 4.44517V5.5645C16.104 5.54803 16.3703 5.5398 16.645 5.5398C25.2088 5.5398 32.1498 12.4039 32.1498 20.8811C32.1498 29.3501 25.2088 36.2142 16.645 36.2142C8.08115 36.2142 1.13186 29.3501 1.13186 20.8811C1.13186 16.1816 3.27074 11.9759 6.64135 9.16114V7.72907C2.60494 10.7331 0 15.5067 0 20.8811C0 29.9674 7.44864 37.3335 16.645 37.3335C25.833 37.3335 33.2817 29.9674 33.2817 20.8811C33.2817 11.8031 25.833 4.42871 16.645 4.42871Z" fill="white"/>
<path fill-rule="evenodd" clip-rule="evenodd" d="M28.415 29.4792C28.673 29.1335 28.9144 28.7714 29.1474 28.401V26.1953H28.415V29.4792Z" fill="white"/>
<path fill-rule="evenodd" clip-rule="evenodd" d="M30.5505 25.3907C30.6587 25.0697 30.7502 24.7487 30.8334 24.4277H28.4199V25.0121H28.7861C29.4186 24.9956 30.1427 24.9874 30.5505 25.3907Z" fill="white"/>
<path d="M14.4719 24.3438H13.8145V30.9033H14.4719V24.3438Z" fill="white"/>
<path fill-rule="evenodd" clip-rule="evenodd" d="M12.3059 23.0848H14.4698C15.0274 23.0848 15.4185 23.2 15.6432 23.414C15.8679 23.628 15.9761 24.0148 15.9761 24.5662V30.6978C15.9761 31.2492 15.8679 31.6361 15.6432 31.85C15.302 32.1875 14.6695 32.1875 14.1452 32.1875C14.0287 32.1793 13.9122 32.1793 13.8123 32.1793V35.0846C14.0287 35.1257 14.2451 35.1669 14.4698 35.1998V32.813C15.4685 32.813 16.1176 32.4756 16.4255 31.8007V35.3562C16.4921 35.3562 16.567 35.3562 16.6419 35.3562C16.7834 35.3562 16.9166 35.3562 17.0581 35.3479V24.6732C17.0581 24.1053 17.1746 23.7103 17.391 23.488C17.6073 23.2576 17.9985 23.1506 18.5478 23.1506C19.1054 23.1506 19.9293 23.0683 20.3538 23.488C20.5702 23.7103 20.67 24.1136 20.67 24.6732V27.8172H19.1886V24.4592H18.5478V35.2327C18.7642 35.208 18.9722 35.1751 19.1886 35.1339V28.4509H20.67V34.7965C20.978 34.7142 21.2776 34.6154 21.5772 34.5084V28.6978C21.5772 28.0394 21.7353 27.5456 22.4177 27.3151L21.6687 23.2741H23.1668L23.4164 27.6855H23.5995L23.8492 23.2741H25.4305L24.5816 27.3151C25.289 27.5621 25.4305 27.99 25.4305 28.6978V32.4509C25.8716 32.1217 26.2877 31.776 26.6872 31.3974V23.2411H31.0731C31.1064 23.0436 31.1314 22.8543 31.1564 22.6486H20.8781L21.0196 23.3811C20.695 22.7885 20.0791 22.4922 19.172 22.4922H18.5311C17.4409 22.4922 16.7751 22.9202 16.5254 23.7761C16.2924 22.879 15.6016 22.4346 14.4614 22.4346H11.6484V34.492C11.8648 34.5661 12.0812 34.6401 12.2976 34.706V23.0848H12.3059ZM25.9465 27.7184L25.2391 27.0518L25.9465 23.4304V27.7184Z" fill="white"/>
<path fill-rule="evenodd" clip-rule="evenodd" d="M23.1602 33.8422C23.3849 33.7269 23.6096 33.6117 23.8343 33.4883V28.5254H23.1602V33.8422Z" fill="white"/>
</svg>
