<svg width="139" height="32" viewBox="0 0 139 32" fill="none" xmlns="http://www.w3.org/2000/svg">
<path d="M0.779297 18.0807H5.60802C5.79494 18.7042 6.0961 19.2549 6.51146 19.7329C7.42527 20.8136 8.78563 21.3539 10.5925 21.3539C13.2925 21.3539 14.6424 20.5226 14.6424 18.86C14.6424 18.4444 14.497 18.0703 14.2063 17.7378C13.9363 17.4053 13.5001 17.1143 12.8978 16.8649C12.3163 16.6156 11.7452 16.4181 11.1844 16.2727C10.6444 16.1064 9.9383 15.909 9.06601 15.6804C8.9414 15.6596 8.83757 15.6388 8.75448 15.618C8.69217 15.5972 8.59872 15.5765 8.4741 15.5557C8.37027 15.5141 8.27681 15.483 8.19373 15.4622C3.87383 14.4231 1.71389 12.3345 1.71389 9.19636C1.71389 7.32597 2.47194 5.74652 3.98806 4.45805C5.52493 3.14878 7.57066 2.49414 10.1252 2.49414C13.4482 2.49414 15.9612 3.61637 17.6643 5.86084C18.3704 6.85838 18.8689 7.97023 19.1596 9.19636H14.3309C14.2063 8.75993 13.9674 8.34431 13.6144 7.94943C12.8252 7.11814 11.6621 6.70251 10.1252 6.70251C8.9414 6.70251 8.04833 6.9311 7.44605 7.38832C6.84377 7.82474 6.54261 8.37548 6.54261 9.04049C6.54261 10.2459 7.91335 11.1603 10.6548 11.7837C11.361 11.95 11.7971 12.0539 11.9632 12.0955C12.1502 12.137 12.5759 12.2513 13.2405 12.4384C13.9259 12.6254 14.3828 12.7813 14.6113 12.906C14.8605 13.0099 15.2655 13.1865 15.8262 13.4359C16.4078 13.6645 16.8128 13.8827 17.0412 14.0905C17.2904 14.2984 17.6019 14.5789 17.9758 14.9322C18.3704 15.2647 18.6508 15.6076 18.8169 15.9609C18.9831 16.3142 19.1284 16.7299 19.2531 17.2078C19.3985 17.6651 19.4711 18.1638 19.4711 18.7042C19.4711 20.6369 18.6923 22.2683 17.1347 23.5983C15.577 24.9076 13.3963 25.5622 10.5925 25.5622C6.89567 25.5622 4.18536 24.3153 2.46156 21.8215C1.65158 20.7408 1.09083 19.4939 0.779297 18.0807ZM22.5913 24.9388V3.1176H32.716C35.3122 3.1176 37.4098 3.85536 39.009 5.33089C40.6289 6.78565 41.4389 8.59369 41.4389 10.755C41.4389 12.9163 40.6289 14.7348 39.009 16.2103C37.4098 17.6651 35.3122 18.3924 32.716 18.3924H27.2642V24.9388H22.5913ZM27.2642 14.0282H32.5603C33.848 14.0282 34.8449 13.7268 35.551 13.1242C36.2571 12.5215 36.6102 11.7318 36.6102 10.755C36.6102 9.77827 36.2571 8.98852 35.551 8.38586C34.8449 7.78319 33.848 7.48184 32.5603 7.48184H27.2642V14.0282ZM44.4045 24.9388V3.1176H49.0777V24.9388H44.4045ZM53.136 24.9388V3.1176H59.2109L67.778 18.5483H68.0895L67.778 15.8986V3.1176H72.4509V24.9388H66.3761L57.809 9.50809H57.4974L57.809 12.1578V24.9388H53.136ZM78.9931 22.2267C76.7082 19.9823 75.5662 17.2494 75.5662 14.0282C75.5662 10.807 76.7082 8.0845 78.9931 5.86084C81.2984 3.61637 84.1538 2.49414 87.5602 2.49414C90.9661 2.49414 93.8112 3.61637 96.0961 5.86084C98.4014 8.0845 99.5541 10.807 99.5541 14.0282C99.5541 17.2494 98.4014 19.9823 96.0961 22.2267C93.8112 24.4504 90.9661 25.5622 87.5602 25.5622C84.1538 25.5622 81.2984 24.4504 78.9931 22.2267ZM82.5134 8.88463C81.2049 10.2147 80.5507 11.9292 80.5507 14.0282C80.5507 16.1272 81.2049 17.8521 82.5134 19.2029C83.8423 20.533 85.5245 21.198 87.5602 21.198C89.5953 21.198 91.2674 20.533 92.5758 19.2029C93.9047 17.8521 94.5696 16.1272 94.5696 14.0282C94.5696 11.9292 93.9047 10.2147 92.5758 8.88463C91.2674 7.53381 89.5953 6.85838 87.5602 6.85838C85.5245 6.85838 83.8423 7.53381 82.5134 8.88463ZM102.664 24.9388V3.1176H108.739L117.306 18.5483H117.618L117.306 15.8986V3.1176H121.979V24.9388H115.905L107.337 9.50809H107.026L107.337 12.1578V24.9388H102.664Z" fill="white"/>
<path d="M133.517 16.4775C135.974 16.4775 137.966 18.4714 137.965 20.9308C137.964 23.3903 135.971 25.3841 133.513 25.3841C131.055 25.3841 129.064 23.3903 129.064 20.9308C129.065 18.4714 131.059 16.4775 133.517 16.4775Z" fill="white"/>
</svg>
