<svg width="48" height="49" viewBox="0 0 48 49" fill="none" xmlns="http://www.w3.org/2000/svg">
<path fill-rule="evenodd" clip-rule="evenodd" d="M42.0423 14.7454L35.0569 46.6787C34.7884 47.9061 33.3525 48.459 32.3302 47.7288L23.7536 41.6027C23.6541 41.5316 23.5179 41.5429 23.4315 41.6293L17.6166 47.4442L14.4047 35.6669C14.3844 35.5928 14.3313 35.5321 14.2605 35.5023L7.39414 32.6112C5.96725 32.0104 5.96598 29.9889 7.39211 29.3864L42.0423 14.7454ZM39.958 17.2545L7.97594 30.7681C7.7722 30.8542 7.77239 31.1429 7.97623 31.2288L14.8426 34.1199C15.3382 34.3285 15.7103 34.7535 15.8518 35.2723L18.3837 44.5558L22.3708 40.5687C22.9757 39.9638 23.9293 39.8848 24.6254 40.3821L33.202 46.5082C33.3481 46.6125 33.5532 46.5335 33.5916 46.3582L39.958 17.2545Z" fill="white"/>
<path d="M24.3198 27.4317L22.6327 28.5831C22.2832 28.8216 22.1933 29.298 22.4318 29.6475C22.6703 29.997 23.1467 30.0869 23.4962 29.8484L25.1833 28.6971C25.5328 28.4586 25.6227 27.9821 25.3842 27.6326C25.1457 27.2832 24.6693 27.1932 24.3198 27.4317Z" fill="white"/>
<path d="M19.7989 30.4319L14.6326 33.9588C14.2832 34.1973 14.1933 34.6738 14.4319 35.0232C14.6704 35.3727 15.1469 35.4625 15.4963 35.224L20.6626 31.6971C21.012 31.4585 21.1019 30.9821 20.8633 30.6326C20.6248 30.2832 20.1483 30.1933 19.7989 30.4319Z" fill="white"/>
</svg>
