<svg width="48" height="48" viewBox="0 0 48 48" fill="none" xmlns="http://www.w3.org/2000/svg">
<g clip-path="url(#clip0_83_32)">
<path d="M29.6073 22.3967C38.097 19.9208 44 12.0706 44 3.20006C44 2.75766 43.6416 2.40009 43.2001 2.40009H35.1997V0.799969C35.1997 0.357563 34.8422 0 34.3998 0H13.5996C13.1581 0 12.7997 0.357563 12.7997 0.799969V2.4H4.79997C4.35841 2.4 4 2.75756 4 3.19997C4 12.0722 9.90522 19.9236 18.3974 22.398C18.7212 22.8524 19.0569 23.2995 19.4069 23.7368C19.6029 23.9544 24.1589 29.14 19.5645 35.1153C19.5437 35.1419 19.5253 35.1706 19.508 35.2001H19.2C17.8768 35.2001 16.8 36.2769 16.8 37.6001V38.5378C15.8689 38.8681 15.1999 39.7574 15.1999 40.8002V47.2002C15.1999 47.6426 15.5583 48.0002 15.9999 48.0002H31.9999C32.4415 48.0002 32.7999 47.6426 32.7999 47.2002V40.8C32.7999 39.7572 32.131 38.868 31.1999 38.5376V37.5999C31.1999 36.2768 30.1231 35.1999 28.7999 35.1999H28.4914C28.4743 35.1704 28.4558 35.1418 28.4356 35.1151C23.8412 29.1399 28.3964 23.9542 28.6244 23.6999C28.9649 23.2744 29.2917 22.8391 29.6073 22.3967ZM35.2 4.00003H42.3824C42.0695 11.1655 37.5808 17.4936 31.0312 20.204C31.0953 20.095 31.1588 19.9857 31.2215 19.8761C31.2796 19.7752 31.3367 19.674 31.3935 19.5726C31.415 19.5338 31.4369 19.4954 31.4583 19.4566C33.7094 15.3923 34.9771 10.8889 35.1723 6.22659C35.1723 6.22566 35.1724 6.22472 35.1724 6.22378C35.1807 6.02625 35.1872 5.82853 35.1916 5.63053C35.192 5.61028 35.1927 5.59012 35.1931 5.56987C35.1972 5.36494 35.2 5.15991 35.2 4.95441V4.00003ZM16.9688 20.204C10.4192 17.4936 5.93041 11.1656 5.61756 4.00003H12.7997V4.95441C12.7997 4.99828 12.8009 5.04216 12.8011 5.08603C12.8017 5.23237 12.803 5.37863 12.8058 5.52459C12.807 5.58928 12.8089 5.65388 12.8106 5.71856C12.8143 5.86453 12.819 6.01041 12.8247 6.15609C12.8264 6.19716 12.828 6.23831 12.8298 6.27938C13.045 11.2103 14.4593 15.9628 16.9688 20.204ZM16.8 46.4V44.7999H19.2C19.6415 44.7999 19.9999 44.4424 19.9999 44C19.9999 43.5576 19.6415 43.2 19.2 43.2H16.8V40.8C16.8 40.3584 17.1591 40 17.5999 40H30.3999C30.8407 40 31.1999 40.3584 31.1999 40.8V41.6H28.7999C28.3583 41.6 27.9999 41.9575 27.9999 42.3999C27.9999 42.8423 28.3583 43.1999 28.7999 43.1999H31.1999V46.3999H16.8V46.4ZM29.5999 37.6V38.4H18.4V37.6C18.4 37.1585 18.7592 36.8001 19.2 36.8001H19.9997H27.9996H28.8C29.2408 36.8 29.5999 37.1584 29.5999 37.6ZM26.5372 35.2H21.4628C25.79 28.5169 20.6477 22.7232 20.6244 22.7001C20.2598 22.2443 19.9105 21.7777 19.5759 21.3015C19.5655 21.284 19.5566 21.2658 19.5447 21.2489C19.0323 20.5171 18.5571 19.7658 18.1188 18.9978C18.0939 18.9539 18.069 18.9101 18.0443 18.8661C17.9956 18.7795 17.9476 18.6925 17.8998 18.6055C17.8257 18.4701 17.7519 18.3344 17.6801 18.1978C17.6775 18.1929 17.6748 18.188 17.6723 18.1831C15.7384 14.5006 14.6203 10.4107 14.4296 6.23522C14.428 6.19931 14.4259 6.16341 14.4244 6.12741C14.4188 5.99184 14.4151 5.85609 14.4113 5.72034C14.4095 5.65444 14.407 5.58872 14.4057 5.52281C14.4036 5.4195 14.4033 5.31609 14.4023 5.21269C14.4016 5.12663 14.3999 5.04056 14.3999 4.95441V3.19997C14.3999 3.19781 14.3996 3.19575 14.3996 3.19359V1.60003H33.5996V4.95441C33.5996 9.16313 32.6513 13.3186 30.8788 17.0839C30.8403 17.165 30.801 17.2457 30.7618 17.3265C30.7309 17.3904 30.7002 17.4544 30.6689 17.5181C30.031 18.8066 29.2923 20.0533 28.4551 21.2488C28.4356 21.2766 28.4193 21.3059 28.4038 21.3354C28.0852 21.7868 27.7539 22.2295 27.4083 22.6616C27.3532 22.7216 22.2101 28.5168 26.5372 35.2Z" fill="white"/>
</g>
<defs>
<clipPath id="clip0_83_32">
<rect width="48" height="48" fill="white"/>
</clipPath>
</defs>
</svg>
