<svg width="48" height="48" viewBox="0 0 48 48" fill="none" xmlns="http://www.w3.org/2000/svg">
<path d="M15.8631 15.5561C15.6778 15.5851 15.5071 15.6729 15.3766 15.8063C15.246 15.9397 15.1627 16.1115 15.1393 16.2959C14.7793 19.1185 15.3123 21.3226 16.7018 22.8714C16.4212 22.8796 16.1412 22.9025 15.8631 22.9401C15.6778 22.9691 15.5071 23.0569 15.3765 23.1903C15.246 23.3237 15.1627 23.4955 15.1393 23.6798C14.187 29.6811 18.2548 32.8465 23.1551 32.6091V38.1557C23.1585 38.3808 23.2511 38.5955 23.413 38.7535C23.5748 38.9115 23.7928 39 24.02 39C24.2472 39 24.4652 38.9114 24.6271 38.7535C24.7889 38.5955 24.8815 38.3808 24.8848 38.1557V32.6099C24.9604 32.6114 25.0279 32.6145 25.1103 32.6145C29.9111 32.7337 33.7906 29.5664 32.8617 23.6798C32.639 22.877 32.2446 22.9342 31.2988 22.8719C32.6887 21.323 33.2218 19.1187 32.8618 16.2959C32.8384 16.1115 32.7551 15.9397 32.6246 15.8063C32.494 15.6729 32.3233 15.5851 32.1381 15.5561C30.6688 15.3751 29.1772 15.5285 27.7768 16.0048C28.9726 12.2874 25.4037 8.59209 24.6136 8.16888C24.4613 8.05657 24.2758 7.99724 24.086 8.0001C23.8962 8.00296 23.7127 8.06786 23.5639 8.1847C20.6572 10.4879 19.4364 13.0173 20.2651 16.0183C18.8533 15.5302 17.3468 15.372 15.8631 15.5561V15.5561ZM18.1781 29.3291C17.1038 28.2781 16.6367 26.684 16.7862 24.5844C18.4309 24.4733 20.0579 24.9763 21.3469 25.9945C22.5243 27.0505 23.1247 28.6973 23.1357 30.8973C21.9668 30.9342 19.6611 30.7793 18.1781 29.3291V29.3291ZM24.0006 26.7195C23.7376 26.1793 23.4009 25.6775 22.9998 25.2283C23.482 25.2235 23.8384 25.1926 24.0006 25.1741C24.1627 25.1926 24.5191 25.2235 25.0013 25.2283C24.6003 25.6775 24.2635 26.1793 24.0006 26.7195V26.7195ZM29.829 29.3233C28.3552 30.7701 26.0411 30.9258 24.8654 30.8957C24.8764 28.6965 25.4768 27.0497 26.6542 25.9945C27.9434 24.9766 29.5703 24.4736 31.2149 24.5845C31.3644 26.6806 30.899 28.2722 29.829 29.3233ZM31.2149 17.2005C31.7053 21.8171 28.3804 23.6811 24.8653 23.5115C24.7331 19.1113 27.7343 16.9983 31.2149 17.2005ZM24.0876 9.98215C26.6316 12.2364 27.2276 15.9119 24.0738 18.8749C21.5175 16.5351 20.5281 12.8888 24.0876 9.98215ZM21.3469 18.6105C22.5243 19.6665 23.1247 21.3134 23.1357 23.5133C21.9668 23.5476 19.6611 23.3953 18.1781 21.9451C17.1038 20.8941 16.6367 19.3 16.7862 17.2005C18.4308 17.0901 20.0575 17.5931 21.3469 18.6105V18.6105Z" fill="white"/>
<path d="M24.0307 4.36976e-08C19.9777 -0.000244542 15.9906 1.02626 12.4415 2.98375C12.2428 3.09372 12.096 3.27811 12.0333 3.49636C11.9706 3.7146 11.9971 3.94882 12.1071 4.14748C12.2171 4.34615 12.4015 4.49299 12.6197 4.55571C12.8379 4.61842 13.0721 4.59187 13.2708 4.48189C32.8387 -6.11641 54.1141 15.1723 43.5181 34.7309C43.4088 34.9295 43.3827 35.1634 43.4456 35.3813C43.5085 35.5991 43.6552 35.7832 43.8536 35.8929C44.052 36.0027 44.2858 36.0293 44.5038 35.9669C44.7218 35.9045 44.9061 35.7582 45.0164 35.56C47.0303 31.91 48.0578 27.7979 47.9975 23.6295C47.9372 19.4611 46.7911 15.3805 44.6723 11.7902C42.5535 8.20003 39.5353 5.2243 35.9155 3.1567C32.2957 1.0891 28.1994 0.00108316 24.0307 4.36976e-08V4.36976e-08Z" fill="white"/>
<path d="M34.746 43.4488C15.5001 54.1359 -6.17257 32.5423 4.57085 13.253C4.67487 13.055 4.69726 12.8242 4.63322 12.61C4.56918 12.3957 4.42381 12.2151 4.22827 12.1069C4.03273 11.9986 3.80259 11.9713 3.58718 12.0309C3.37177 12.0904 3.18825 12.232 3.07594 12.4253C-8.50055 33.2035 14.8591 56.4572 35.5739 44.9438C35.7675 44.8316 35.9094 44.6479 35.9691 44.4321C36.0287 44.2163 36.0014 43.9857 35.893 43.7898C35.7845 43.594 35.6036 43.4486 35.3891 43.3848C35.1747 43.321 34.9437 43.344 34.746 43.4488V43.4488Z" fill="white"/>
<path d="M37.5 39C36.5688 39.0083 35.6787 39.3808 35.0232 40.0362C34.3677 40.6917 34 41.5772 34 42.5C34 43.4229 34.3678 44.3083 35.0232 44.9638C35.6787 45.6193 36.5689 45.9917 37.5 46C38.4312 45.9917 39.3213 45.6192 39.9768 44.9638C40.6323 44.3083 41 43.4228 41 42.5C41 41.5771 40.6322 40.6917 39.9768 40.0362C39.3213 39.3807 38.4311 39.0083 37.5 39ZM37.5 44.4163C36.9909 44.4106 36.5045 44.2063 36.1465 43.8475C35.7885 43.4887 35.5878 43.0045 35.5878 42.5C35.5878 41.9954 35.7886 41.5112 36.1466 41.1524C36.5046 40.7937 36.9909 40.5893 37.5 40.5837C38.009 40.5896 38.495 40.7941 38.8528 41.1529C39.2106 41.5116 39.4112 41.9957 39.4112 42.5C39.4112 43.0044 39.2105 43.4884 38.8527 43.8472C38.4949 44.2059 38.0089 44.4104 37.5 44.4163Z" fill="white"/>
<path d="M10.5 9C11.4312 8.99166 12.3213 8.61923 12.9768 7.96375C13.6323 7.30827 14 6.42278 14 5.49996C14 4.57714 13.6322 3.69166 12.9768 3.03619C12.3213 2.38073 11.4311 2.00832 10.5 2C9.56881 2.00834 8.67866 2.38077 8.02319 3.03625C7.36772 3.69173 6.99999 4.57722 7 5.50004C7.00001 6.42286 7.36777 7.30834 8.02325 7.96381C8.67873 8.61927 9.56889 8.99168 10.5 9V9ZM10.5 3.58374C11.0091 3.58937 11.4955 3.79374 11.8535 4.15251C12.2115 4.51128 12.4122 4.99548 12.4122 5.50004C12.4122 6.0046 12.2114 6.4888 11.8534 6.84755C11.4954 7.2063 11.0091 7.41065 10.5 7.41626C9.99103 7.41036 9.50498 7.20587 9.14722 6.84713C8.78945 6.4884 8.58881 6.00435 8.58882 5.49997C8.58884 4.99559 8.78949 4.51155 9.14728 4.15283C9.50506 3.79411 9.99112 3.58964 10.5 3.58376V3.58374Z" fill="white"/>
</svg>
