<svg width="48" height="48" viewBox="0 0 48 48" fill="none" xmlns="http://www.w3.org/2000/svg">
<g clip-path="url(#clip0_102_17)">
<path d="M41.2496 14.4583V11.1042H35.4996C35.2849 11.1556 35.2452 10.766 35.2452 10.766C34.5322 6.9782 31.6467 4.26131 26.8997 2.90745C23.4254 1.91699 20.2018 1.99982 20.106 2.00287C19.659 1.99524 8.66646 2.00001 4.35394 2C4.25198 2.19009 4.06641 5.83333 4.06641 5.83333C5.02465 15.4167 10.1037 16.8542 10.1037 16.8542L9.40017 19.1558C9.38633 19.3138 9.37816 19.4729 9.37816 19.6332L9.35749 26.6217C9.35749 31.8577 9.8711 37.191 13.6023 40.7328C14.1971 41.2975 14.8364 41.8031 15.4901 42.2779V47.2334C15.4901 47.6574 15.8336 48 16.2567 48C16.6798 48 17.0233 47.6574 17.0233 47.2334V43.3378C17.1095 43.3955 17.1961 43.4536 17.2819 43.5111L18.0171 44.0055C18.3076 44.2018 18.5912 44.4119 18.8749 44.6211C20.1023 45.5288 21.3711 46.4671 23.1565 46.4671C24.9413 46.4671 26.21 45.5287 27.4381 44.6211C27.721 44.4118 28.0046 44.2017 28.2952 44.0055L29.0303 43.5111C29.1163 43.4536 29.2028 43.3954 29.2892 43.3377V47.2334C29.2892 47.6574 29.6326 48 30.0557 48C30.4789 48 30.8223 47.6574 30.8223 47.2334V42.2778C31.4761 41.8031 32.1153 41.2975 32.7101 40.7328C35.8314 37.7698 36.7118 33.5538 36.9194 29.1834C41.7287 22.6042 41.2496 14.4583 41.2496 14.4583ZM5.79122 3.4375C5.79122 3.4375 19.9779 3.52922 20.1128 3.53614C20.2332 3.52383 32.2745 3.26626 33.7379 11.049C33.8545 11.6677 34.0866 12.5577 34.0621 12.5417C34.0375 12.5256 36.4579 12.5417 36.4579 12.5417H39.8121V14.4583C39.8121 14.4583 39.8121 21.1667 36.9756 26.7735C36.9759 26.6941 36.9764 26.6146 36.9764 26.5352V19.6356C36.9764 18.9119 36.8346 18.2089 36.5548 17.5451C35.5475 15.1616 32.7256 14.0308 30.1344 14.9662C29.0803 15.348 27.018 15.8025 23.1773 15.8025C19.3365 15.8025 17.2736 15.348 16.2194 14.9662C14.3129 14.2761 12.2845 14.7077 10.9434 15.9316C4.83307 12.5417 5.31205 4.39583 5.79122 3.4375ZM31.6546 39.6204C31.0601 40.1851 30.3993 40.6969 29.7189 41.1823C29.6419 41.2201 29.5717 41.2698 29.5119 41.33C29.07 41.6401 28.6216 41.9401 28.1787 42.2362L27.4351 42.7352C27.1269 42.9445 26.8264 43.1668 26.5266 43.3883C25.4511 44.1826 24.4361 44.9338 23.1566 44.9338C21.8763 44.9338 20.8613 44.1825 19.7865 43.3883C19.486 43.1668 19.1855 42.9444 18.8781 42.7352L18.1337 42.2362C16.9354 41.4351 15.6974 40.6071 14.6579 39.6204C11.1812 36.321 10.8907 31.1808 10.8907 26.6239L10.9113 19.6537C10.9184 19.5167 10.9248 19.3812 10.9307 19.247C10.9687 18.8656 11.0628 18.4953 11.2119 18.1413C11.734 16.907 12.9882 16.1703 14.3582 16.1703C14.7997 16.1703 15.2528 16.247 15.6982 16.408C16.8672 16.8304 19.1143 17.3355 23.1773 17.3355C27.2396 17.3355 29.4865 16.8304 30.6564 16.408C32.4802 15.7471 34.452 16.5091 35.1419 18.1413C35.342 18.6143 35.4433 19.1172 35.4433 19.6354V26.535C35.4433 31.4637 34.9841 36.4605 31.6546 39.6204Z" fill="white"/>
<path fill-rule="evenodd" clip-rule="evenodd" d="M18.4697 34.4697C18.7626 34.1768 19.2374 34.1768 19.5303 34.4697C20.1955 35.1348 21.4089 35.9404 22.833 36.1722C24.2106 36.3965 25.8425 36.0968 27.4697 34.4697C27.7626 34.1768 28.2374 34.1768 28.5303 34.4697C28.8232 34.7626 28.8232 35.2374 28.5303 35.5303C26.5575 37.5032 24.4394 37.9535 22.592 37.6528C20.7911 37.3596 19.3045 36.3652 18.4697 35.5303C18.1768 35.2374 18.1768 34.7626 18.4697 34.4697Z" fill="white"/>
</g>
<path d="M19.7178 26.7332L19.7178 24.7757C19.7178 24.3702 19.3892 24.0417 18.9837 24.0417C18.5782 24.0417 18.2497 24.3702 18.2497 24.7757L18.2497 26.7332C18.2497 27.1386 18.5782 27.4672 18.9837 27.4672C19.3892 27.4672 19.7178 27.1386 19.7178 26.7332Z" fill="white"/>
<path d="M29.3008 26.7332L29.3008 24.7757C29.3008 24.3702 28.9722 24.0417 28.5667 24.0417C28.1613 24.0417 27.8327 24.3702 27.8327 24.7757L27.8327 26.7332C27.8327 27.1386 28.1613 27.4672 28.5667 27.4672C28.9722 27.4672 29.3008 27.1386 29.3008 26.7332Z" fill="white"/>
<defs>
<clipPath id="clip0_102_17">
<rect width="46" height="46" fill="white" transform="translate(1 2)"/>
</clipPath>
</defs>
</svg>
