<svg width="48" height="49" viewBox="0 0 48 49" fill="none" xmlns="http://www.w3.org/2000/svg">
<path fill-rule="evenodd" clip-rule="evenodd" d="M1.8127 9.83092C1.76663 9.87328 1.75 9.91827 1.75 9.96154V25.3462C1.75 25.3822 1.76477 25.4288 1.8146 25.4749C1.86521 25.5218 1.94322 25.5577 2.03846 25.5577H4.82692V29.4871L9.99255 25.5577H15.2734V27.0577H10.4982L3.32692 32.5129V27.0577H2.03846C1.10849 27.0577 0.25 26.3425 0.25 25.3462V9.96154C0.25 8.95088 1.11356 8.25 2.03846 8.25H26.9615C27.8864 8.25 28.75 8.95088 28.75 9.96154V19.5H27.25V9.96154C27.25 9.91827 27.2334 9.87328 27.1873 9.83092C27.1393 9.78674 27.0615 9.75 26.9615 9.75H2.03846C1.93853 9.75 1.86075 9.78674 1.8127 9.83092Z" fill="white"/>
<path fill-rule="evenodd" clip-rule="evenodd" d="M43.4718 41.2068H46.5003V23.9825H19.4072V41.2068H38.4966L43.4718 45.1584V41.2068ZM44.9718 48.2653L37.9734 42.7068H18.9215C18.3525 42.7068 17.9072 42.2656 17.9072 41.7265V23.4628C17.9072 22.9236 18.3525 22.4825 18.9215 22.4825H46.986C47.5439 22.4825 48.0003 22.9236 48.0003 23.4628V41.7265C48.0003 42.2656 47.5439 42.7068 46.986 42.7068H44.9718V48.2653Z" fill="white"/>
<path d="M35.2752 28H29.0199C28.5967 28 28.2539 28.3428 28.2539 28.766C28.2539 29.1891 28.5967 29.5319 29.0199 29.5319H35.2752C35.6983 29.5319 36.0411 29.1891 36.0411 28.766C36.0411 28.3428 35.6983 28 35.2752 28Z" fill="white"/>
<path d="M23.7658 33H30.0212C30.4443 33 30.7871 33.3428 30.7871 33.766C30.7871 34.1891 30.4443 34.5319 30.0212 34.5319H23.7658C23.3427 34.5319 22.9999 34.1891 22.9999 33.766C22.9999 33.3428 23.3427 33 23.7658 33Z" fill="white"/>
<path d="M25.955 28H23.9124C23.4893 28 23.1465 28.3428 23.1465 28.766C23.1465 29.1891 23.4893 29.5319 23.9124 29.5319H25.955C26.3781 29.5319 26.721 29.1891 26.721 28.766C26.721 28.3428 26.3781 28 25.955 28Z" fill="white"/>
<path d="M33.085 33H35.1276C35.5507 33 35.8936 33.3428 35.8936 33.766C35.8936 34.1891 35.5507 34.5319 35.1276 34.5319H33.085C32.6619 34.5319 32.3191 34.1891 32.3191 33.766C32.3191 33.3428 32.6619 33 33.085 33Z" fill="white"/>
</svg>
