<svg width="48" height="48" viewBox="0 0 48 48" fill="none" xmlns="http://www.w3.org/2000/svg">
<path d="M38.5556 5C40.9456 5 43 6.92679 43 9.44445V32.5556C43 34.9456 41.076 37 38.5556 37H15.4444C13.0544 37 11 35.0665 11 32.5556V9.44445C11 7.05444 12.9116 5 15.4444 5H38.5556ZM15.4444 6.77778C14.0243 6.77778 12.7778 7.91952 12.7778 9.44445V32.5556C12.7778 33.9757 13.9074 35.2222 15.4444 35.2222H38.5556C39.9757 35.2222 41.2222 34.0563 41.2222 32.5556V9.44445C41.2222 8.02428 40.0516 6.77778 38.5556 6.77778H15.4444ZM35.3235 15.3431C35.644 15.6636 35.6975 16.2233 35.3235 16.6002L25.2669 26.6569C24.9385 26.9852 24.3762 27.0511 23.9883 26.6346L20.1277 22.4952C19.7929 22.1361 19.8125 21.5737 20.1715 21.2388C20.5029 20.9298 21.0631 20.8816 21.4278 21.2826L24.6604 24.7484L34.0664 15.3431C34.4136 14.996 34.9764 14.996 35.3235 15.3431V15.3431Z" fill="white"/>
<path fill-rule="evenodd" clip-rule="evenodd" d="M5.5 17.25C5.91421 17.25 6.25 17.5858 6.25 18V31.6C6.25 32.4486 6.25047 32.8337 6.2731 33.1533C6.59834 37.7469 10.2531 41.4017 14.8467 41.7269C15.1663 41.7495 15.5514 41.75 16.4 41.75H29C29.4142 41.75 29.75 42.0858 29.75 42.5C29.75 42.9142 29.4142 43.25 29 43.25H16.3587C15.5619 43.25 15.1201 43.25 14.7408 43.2232C9.40224 42.8452 5.15483 38.5978 4.77685 33.2592C4.74999 32.8799 4.74999 32.438 4.75 31.6412L4.75 18C4.75 17.5858 5.08579 17.25 5.5 17.25Z" fill="white"/>
</svg>
