
<svg width="134" height="134" viewBox="0 0 134 134" fill="none" xmlns="http://www.w3.org/2000/svg">
<rect width="134" height="134" rx="4" fill="#002003"/>
<path d="M101.418 33.5816C99.6973 31.8605 97.4365 31 95.1756 31C92.9148 31 90.654 31.8605 88.9329 33.5816C86.6725 35.8421 82.6355 45.7995 79.3175 55.4502C78.2261 54.3612 77.0894 53.3485 75.9163 52.4206C77.538 47.7863 79.7368 41.8949 81.9167 37.2782C80.8495 36.3511 79.4564 35.7891 77.9318 35.7891C74.5741 35.7891 71.852 38.5111 71.852 41.8689C71.852 43.7876 73.8416 48.4701 75.5472 52.1323C68.5898 46.7695 60.3988 44.3899 52.7792 46.8268L68.9778 63.024L66.0035 65.9982L48.6653 48.6588C47.4711 49.3513 46.3007 50.1796 45.1626 51.1524L60.02 66.0097L57.0471 68.9839L42.2572 54.1938C41.4821 55.2464 40.8262 56.3986 40.274 57.6306L57.3233 74.68L54.3491 77.6528L38.7769 62.0808C38.3367 63.8904 38.048 65.7951 37.8756 67.7504L48.0781 77.9529L45.1039 80.9257L37.6752 73.497C37.7088 76.5062 37.9345 79.5269 38.2429 82.4058C38.6143 85.694 38.0088 88.9907 36.4895 91.9383L32.6687 99.3544C32.2703 100.128 32.4173 101.07 33.0324 101.685L33.3155 101.968C33.9304 102.583 34.8724 102.73 35.6455 102.331L38.7054 100.755L43.0631 98.5106C46.0093 96.9912 49.306 96.3857 52.5942 96.7571C63.119 97.8658 75.6063 97.9583 82.4195 91.3818C91.887 81.8897 90.6695 69.5476 82.8771 59.4572C86.538 61.1618 91.2141 63.148 93.1312 63.148C96.4889 63.148 99.211 60.4261 99.211 57.0682C99.211 55.5433 98.6488 54.1502 97.7214 53.0832C93.1063 55.262 87.2175 57.46 82.5841 59.0818C81.6586 57.9146 80.6449 56.779 79.5492 55.6824C89.2013 52.3638 99.1586 48.3268 101.418 46.0671C104.861 42.6249 104.861 37.024 101.418 33.5816ZM51.0776 86.8966L48.1034 83.9224L51.0776 80.9496L54.0504 83.9224L51.0776 86.8966ZM60.3206 83.624L57.3474 80.6507L60.3206 77.6775L63.2938 80.6507L60.3206 83.624ZM63.0181 74.9547L60.0453 71.9819L63.0181 69.0077L64.5052 70.4948L65.9923 71.9819L63.0181 74.9547ZM71.9755 71.9691L69.0022 68.9957L71.9755 66.0225L74.9487 68.9959L71.9755 71.9691Z" fill="url(#paint0_linear_1316_3070)"/>
<defs>
<linearGradient id="paint0_linear_1316_3070" x1="-3.19979" y1="66.9998" x2="43.2474" y2="133.759" gradientUnits="userSpaceOnUse">
<stop stop-color="#F2FAF3"/>
<stop offset="0.435417" stop-color="#4CED5B"/>
<stop offset="1" stop-color="#2B6030"/>
</linearGradient>
</defs>
</svg>
