<svg width="134" height="134" viewBox="0 0 134 134" fill="none" xmlns="http://www.w3.org/2000/svg">
<rect width="134" height="134" rx="4" fill="#08071E"/>
<rect width="134" height="134" rx="4" fill="black" fill-opacity="0.2"/>
<rect width="134" height="134" rx="4" fill="black" fill-opacity="0.2"/>
<path fill-rule="evenodd" clip-rule="evenodd" d="M62.8823 31V71.2353H73.4706V45.8235H79.8235V41.5882H84.0588V45.8235H90.4117V71.2353H101V31H62.8823ZM77.7058 58.5293H86.1764V62.7646H77.7058V58.5293ZM86.1764 67H77.7058V71.2353H86.1764V67ZM62.8824 75.4707V88.1766H79.6461C78.6348 94.1781 73.4021 98.7648 67.1176 98.7648H58.6471C51.641 98.7648 45.9412 93.065 45.9412 86.0589V73.3531H48.9059C54.2772 73.3531 58.6471 68.9832 58.6471 63.6119V58.5295H51.4471C49.4049 58.5295 47.5085 59.1623 45.9412 60.2404V54.7204C53.3837 49.4677 52.8268 37.9101 44.8843 33.4025L43.8235 32.7888L42.7627 33.4027C34.8179 37.912 34.2655 49.4697 41.7059 54.7206V60.2406C40.1384 59.1623 38.2421 58.5295 36.2 58.5295H29V63.6119C29 68.9832 33.3698 73.3531 38.7412 73.3531H41.7059V86.0589C41.7059 95.4003 49.3056 103 58.6471 103H67.1176C75.742 103 82.8814 96.5221 83.9268 88.1766H101V75.4707H62.8824ZM86.1764 50.0588H77.7058V54.2941H86.1764V50.0588Z" fill="url(#paint0_linear_81_375)"/>
<defs>
<linearGradient id="paint0_linear_81_375" x1="117.5" y1="82.5001" x2="53.9678" y2="24.3668" gradientUnits="userSpaceOnUse">
<stop stop-color="#00F0FF"/>
<stop offset="0.999905" stop-color="#E5F96E"/>
</linearGradient>
</defs>
</svg>
