
<svg width="134" height="134" viewBox="0 0 134 134" fill="none" xmlns="http://www.w3.org/2000/svg">
<rect width="134" height="134" rx="4" fill="#002003"/>
<path fill-rule="evenodd" clip-rule="evenodd" d="M97.4976 58.5452L103 59.6457V74.3543L97.4976 75.4548C96.8097 77.942 95.819 80.3305 94.5411 82.5829L97.6561 87.2556L87.2556 97.6561L82.5829 94.5411C80.3304 95.8191 77.9422 96.8095 75.4548 97.4976L74.3543 103H59.6457L58.5452 97.4976C56.0578 96.8097 53.6696 95.8191 51.4171 94.5411L46.7444 97.6562L36.3439 87.2556L39.459 82.5829C38.1812 80.3307 37.1903 77.9422 36.5024 75.4548L31 74.3543V59.6457L36.5022 58.5452C37.1903 56.0577 38.1809 53.6696 39.4589 51.4171L36.3439 46.7444L46.7444 36.3439L51.4171 39.459C53.6695 38.181 56.0577 37.1905 58.5452 36.5024L59.6457 31H74.3543L75.4548 36.5022C77.9423 37.1903 80.3304 38.1809 82.5829 39.4589L87.2556 36.3439L97.6562 46.7444L94.541 51.4171C95.8191 53.6696 96.8095 56.0577 97.4976 58.5452ZM43.7969 67C43.7969 79.7942 54.2058 90.2031 67 90.2031C79.7942 90.2031 90.2031 79.7942 90.2031 67C90.2031 54.2058 79.7942 43.7969 67 43.7969C54.2058 43.7969 43.7969 54.2058 43.7969 67ZM48.0156 67C48.0156 56.532 56.532 48.0156 67 48.0156C77.468 48.0156 85.9844 56.532 85.9844 67C85.9844 76.755 78.5883 84.8138 69.1094 85.8665V81.6143C76.2554 80.5876 81.7656 74.4256 81.7656 67V64.8906H79.6562C74.2913 64.8906 69.5858 67.7671 67 72.0584C64.4142 67.7671 59.7087 64.8906 54.3438 64.8906H52.2344V67C52.2344 74.4257 57.7446 80.5876 64.8906 81.6143V85.8665C55.4117 84.8138 48.0156 76.755 48.0156 67ZM55.0675 58.0506L58.0506 61.0337L61.0337 58.0506L58.0506 55.0675L55.0675 58.0506ZM64.8906 52.2344V56.4531H69.1094V52.2344H64.8906ZM72.9663 58.0506L75.9494 61.0337L78.9325 58.0506L75.9494 55.0675L72.9663 58.0506ZM69.3804 77.2767C73.2885 76.3719 76.3714 73.289 77.2762 69.3809C73.3681 70.2856 70.2852 73.3686 69.3804 77.2767ZM56.7241 69.3809C57.6289 73.289 60.7118 76.3719 64.6199 77.2767C63.7152 73.3686 60.6322 70.2856 56.7241 69.3809Z" fill="url(#paint0_linear_1316_2499)"/>
<defs>
<linearGradient id="paint0_linear_1316_2499" x1="-4.19976" y1="66.9998" x2="42.2474" y2="133.759" gradientUnits="userSpaceOnUse">
<stop stop-color="#F2FAF3"/>
<stop offset="0.435417" stop-color="#4CED5B"/>
<stop offset="1" stop-color="#2B6030"/>
</linearGradient>
</defs>
</svg>
