
<svg width="134" height="134" viewBox="0 0 134 134" fill="none" xmlns="http://www.w3.org/2000/svg">
<rect width="134" height="134" rx="4" fill="#002003"/>
<path fill-rule="evenodd" clip-rule="evenodd" d="M64.8823 31V71.2353H75.4706V45.8235H81.8235V41.5882H86.0588V45.8235H92.4117V71.2353H103V31H64.8823ZM79.7058 58.5293H88.1764V62.7646H79.7058V58.5293ZM88.1764 67H79.7058V71.2353H88.1764V67ZM64.8824 75.4707V88.1766H81.6461C80.6348 94.1781 75.4021 98.7648 69.1176 98.7648H60.6471C53.641 98.7648 47.9412 93.065 47.9412 86.0589V73.3531H50.9059C56.2772 73.3531 60.6471 68.9832 60.6471 63.6119V58.5295H53.4471C51.4049 58.5295 49.5085 59.1623 47.9412 60.2404V54.7204C55.3837 49.4677 54.8268 37.9101 46.8843 33.4025L45.8235 32.7888L44.7627 33.4027C36.8179 37.912 36.2655 49.4697 43.7059 54.7206V60.2406C42.1384 59.1623 40.2421 58.5295 38.2 58.5295H31V63.6119C31 68.9832 35.3698 73.3531 40.7412 73.3531H43.7059V86.0589C43.7059 95.4003 51.3056 103 60.6471 103H69.1176C77.742 103 84.8814 96.5221 85.9268 88.1766H103V75.4707H64.8824ZM88.1764 50.0588H79.7058V54.2941H88.1764V50.0588Z" fill="url(#paint0_linear_1316_3662)"/>
<defs>
<linearGradient id="paint0_linear_1316_3662" x1="-4.19976" y1="66.9999" x2="42.2475" y2="133.759" gradientUnits="userSpaceOnUse">
<stop stop-color="#F2FAF3"/>
<stop offset="0.435417" stop-color="#4CED5B"/>
<stop offset="1" stop-color="#2B6030"/>
</linearGradient>
</defs>
</svg>
