<svg width="134" height="134" viewBox="0 0 134 134" fill="none" xmlns="http://www.w3.org/2000/svg">
<rect width="134" height="134" rx="4" fill="#08071E"/>
<rect width="134" height="134" rx="4" fill="black" fill-opacity="0.2"/>
<rect width="134" height="134" rx="4" fill="black" fill-opacity="0.2"/>
<g clip-path="url(#clip0_81_267)">
<path fill-rule="evenodd" clip-rule="evenodd" d="M54.2941 47.0038L52.1765 47.861L50.0589 47.0038V56.5208L39.4707 52.2854V42.7177V35.2354H43.706V44.4322L50.0588 47.0038V31H52.1765H54.2941V47.0038ZM39.4707 87.4884L50.0588 91.7744V103H52.1765H54.2941V91.7744L52.1765 92.6316L50.0589 91.7745V84.3764L39.4707 80.1411V87.4884ZM39.4707 75.5795L50.0589 79.8148V72.5058L39.4707 68.2705V75.5795ZM64.8824 63.7092L54.2942 67.9446V61.0825L64.8824 56.8472V63.7092ZM54.2942 79.8148L64.8824 75.5795V68.2705L54.2942 72.5058V79.8148ZM39.4707 56.8472L50.0589 61.0825V67.9446L39.4707 63.7092V56.8472ZM64.8824 52.2854V42.7177V35.2354H60.6471V44.4322L54.2942 47.0038V56.5208L64.8824 52.2854ZM64.8824 87.4884L54.2942 91.7745V84.3764L64.8824 80.1411V87.4884ZM81.8237 47.861L83.9413 47.0038V31H81.8237H79.7061V47.0038L81.8237 47.861ZM79.7061 91.7744L81.8237 92.6316L83.9413 91.7744V103H81.8237H79.7061V91.7744ZM69.1177 75.5795L79.7059 79.8148V72.5058L69.1177 68.2705V75.5795ZM83.9414 67.9446V61.0825L94.5296 56.8472V63.7092L83.9414 67.9446ZM83.9414 79.8148L94.5296 75.5795V68.2705L83.9414 72.5058V79.8148ZM69.1177 56.8472L79.7059 61.0825V67.9446L69.1177 63.7092V56.8472ZM94.5296 52.2854V42.7177V35.2354H90.2943V44.4322L83.9414 47.0038V56.5208L94.5296 52.2854ZM94.5296 87.4884L83.9414 91.7745V84.3764L94.5296 80.1411V87.4884ZM79.7059 84.3764L69.1177 80.1411V87.4884L79.7059 91.7745V84.3764ZM73.353 44.4322L79.7059 47.0038V56.5208L69.1177 52.2854V42.7177V35.2354H73.353V44.4322Z" fill="url(#paint0_linear_81_267)"/>
</g>
<defs>
<linearGradient id="paint0_linear_81_267" x1="107.147" y1="82.5" x2="47.2252" y2="40.5711" gradientUnits="userSpaceOnUse">
<stop stop-color="#00F0FF"/>
<stop offset="0.999905" stop-color="#E5F96E"/>
</linearGradient>
<clipPath id="clip0_81_267">
<rect width="72" height="72" fill="white" transform="translate(31 31)"/>
</clipPath>
</defs>
</svg>
