<svg width="134" height="134" viewBox="0 0 134 134" fill="none" xmlns="http://www.w3.org/2000/svg">
<rect width="134" height="134" rx="4" fill="#002003"/>
<path fill-rule="evenodd" clip-rule="evenodd" d="M103 52.1641V47.9453H95.0013V38.9988H86.0547V31H81.8359V38.9988H77.582V31H73.3633V38.9988H69.1094V31H64.8906V38.9988H60.6367V31H56.418V38.9988H52.1641V31H47.9453V38.9988H38.9988V47.9453H31V52.1641H38.9988V56.418H31V60.6367H38.9988V64.8906H31V69.1094H38.9988V73.3633H31V77.582H38.9988V81.8359H31V86.0547H38.9988V95.0013H47.9453V103H52.1641V95.0013H56.418V103H60.6367V95.0013H64.8906V103H69.1094V95.0013H73.3633V103H77.582V95.0013H81.8359V103H86.0547V95.0013H95.0013V86.0547H103V81.8359H95.0013V77.582H103V73.3633H95.0013V69.1094H103V64.8906H95.0013V60.6367H103V56.418H95.0013V52.1641H103ZM86.8932 86.8932H47.1068V47.1068H86.8932V86.8932ZM51.3256 51.3254H82.6745V82.6744H51.3256V51.3254ZM57.1311 76.8967C61.5434 78.9536 69.3824 79.8367 73.6139 75.3795C80.311 68.3472 78.4977 58.7115 78.0765 56.4733C78.0327 56.2407 78.004 56.0879 78.0014 56.0264L77.843 55.9968C75.2153 55.5047 65.7307 53.7283 58.6483 60.4139C52.9811 66.392 56.2524 74.6642 57.0049 76.5671C57.065 76.719 57.109 76.8304 57.1311 76.8967ZM59.8284 71.2164C59.2794 68.3941 59.8719 64.9797 61.6314 63.3969C64.4165 60.6119 68.3493 59.8204 71.3659 59.679L59.8284 71.2164ZM74.3601 62.6506C74.2239 65.662 73.434 69.5931 70.6308 72.3965C68.4601 74.5673 65.2263 74.5921 62.812 74.1988L74.3601 62.6506Z" fill="url(#paint0_linear_1301_3421)"/>
<defs>
<linearGradient id="paint0_linear_1301_3421" x1="-4.19976" y1="66.9998" x2="42.2474" y2="133.759" gradientUnits="userSpaceOnUse">
<stop stop-color="#F2FAF3"/>
<stop offset="0.435417" stop-color="#4CED5B"/>
<stop offset="1" stop-color="#2B6030"/>
</linearGradient>
</defs>
</svg>
