
<svg width="134" height="134" viewBox="0 0 134 134" fill="none" xmlns="http://www.w3.org/2000/svg">
<rect width="134" height="134" rx="4" fill="#002003"/>
<path fill-rule="evenodd" clip-rule="evenodd" d="M53.8234 47.0038L51.7058 47.861L49.5882 47.0038V56.5208L39 52.2854V42.7177V35.2354H43.2353V44.4322L49.5881 47.0038V31H51.7058H53.8234V47.0038ZM39 87.4884L49.5881 91.7744V103H51.7058H53.8234V91.7744L51.7058 92.6316L49.5882 91.7745V84.3764L39 80.1411V87.4884ZM39 75.5795L49.5882 79.8148V72.5058L39 68.2705V75.5795ZM64.4117 63.7092L53.8235 67.9446V61.0825L64.4117 56.8472V63.7092ZM53.8235 79.8148L64.4117 75.5795V68.2705L53.8235 72.5058V79.8148ZM39 56.8472L49.5882 61.0825V67.9446L39 63.7092V56.8472ZM64.4117 52.2854V42.7177V35.2354H60.1764V44.4322L53.8235 47.0038V56.5208L64.4117 52.2854ZM64.4117 87.4884L53.8235 91.7745V84.3764L64.4117 80.1411V87.4884ZM81.353 47.861L83.4706 47.0038V31H81.353H79.2354V47.0038L81.353 47.861ZM79.2354 91.7744L81.353 92.6316L83.4706 91.7744V103H81.353H79.2354V91.7744ZM68.647 75.5795L79.2352 79.8148V72.5058L68.647 68.2705V75.5795ZM83.4707 67.9446V61.0825L94.0589 56.8472V63.7092L83.4707 67.9446ZM83.4707 79.8148L94.0589 75.5795V68.2705L83.4707 72.5058V79.8148ZM68.647 56.8472L79.2352 61.0825V67.9446L68.647 63.7092V56.8472ZM94.0589 52.2854V42.7177V35.2354H89.8236V44.4322L83.4707 47.0038V56.5208L94.0589 52.2854ZM94.0589 87.4884L83.4707 91.7745V84.3764L94.0589 80.1411V87.4884ZM79.2352 84.3764L68.647 80.1411V87.4884L79.2352 91.7745V84.3764ZM72.8823 44.4322L79.2352 47.0038V56.5208L68.647 52.2854V42.7177V35.2354H72.8823V44.4322Z" fill="url(#paint0_linear_1316_6676)"/>
<defs>
<linearGradient id="paint0_linear_1316_6676" x1="12.0825" y1="66.9999" x2="61.3993" y2="121.205" gradientUnits="userSpaceOnUse">
<stop stop-color="#F2FAF3"/>
<stop offset="0.435417" stop-color="#4CED5B"/>
<stop offset="1" stop-color="#2B6030"/>
</linearGradient>
</defs>
</svg>
