<svg width="134" height="134" viewBox="0 0 134 134" fill="none" xmlns="http://www.w3.org/2000/svg">
<rect width="134" height="134" rx="4" fill="#08071E"/>
<rect width="134" height="134" rx="4" fill="black" fill-opacity="0.2"/>
<rect width="134" height="134" rx="4" fill="black" fill-opacity="0.2"/>
<path fill-rule="evenodd" clip-rule="evenodd" d="M94.1719 35.2188H100.5V31H83.625V35.2188H89.9531V43.6562H85.7344V41.5469C85.7344 38.0519 82.9012 35.2188 79.4062 35.2188H54.0938C50.5988 35.2188 47.7656 38.0519 47.7656 41.5469V43.6562H43.5469V35.2188H49.875V31H33V35.2188H39.3281V47.875H44.2056C42.0603 50.275 40.5381 53.1788 39.8174 56.3125H35.1094V60.5312H47.7656V56.3125H44.2455C45.1477 53.3248 46.9147 50.6222 49.4527 48.7175L50.5764 47.875H60.4219V49.9844C60.4219 53.4738 63.2605 56.3125 66.75 56.3125C70.2395 56.3125 73.0781 53.4738 73.0781 49.9844V47.875H82.9236L84.0473 48.7175C86.5854 50.6221 88.3523 53.3248 89.2545 56.3125H85.7344V60.5312H98.3906V56.3125H93.6826C92.9619 53.1788 91.4397 50.275 89.2944 47.875H94.1719V35.2188ZM70.9688 77.4062C69.8049 77.4062 68.8594 78.3518 68.8594 79.5156V81.625H70.9688C72.1326 81.625 73.0781 80.6794 73.0781 79.5156V77.4062H70.9688ZM66.7499 60.5312C69.1028 60.5312 71.2564 59.7297 73.0129 58.4219L90.2166 79.0686L86.5516 90.0625H68.8593V85.8438H70.9686C74.4581 85.8438 77.2968 83.0051 77.2968 79.5156V73.1875H70.9686C69.342 73.1875 67.8721 73.8214 66.7499 74.8334C65.6277 73.8214 64.1578 73.1875 62.5311 73.1875H56.203V79.5156C56.203 83.0051 59.0417 85.8438 62.5311 85.8438H64.6405V90.0625H46.9482L43.283 79.0686L60.4869 58.4219C62.2436 59.7297 64.397 60.5312 66.7499 60.5312ZM52.7898 94.2812L57.0085 103H76.4913L80.71 94.2812H52.7898ZM60.4219 77.4062H62.5312C63.6951 77.4062 64.6406 78.3518 64.6406 79.5156V81.625H62.5312C61.3674 81.625 60.4219 80.6794 60.4219 79.5156V77.4062Z" fill="url(#paint0_linear_81_190)"/>
<defs>
<linearGradient id="paint0_linear_81_190" x1="115.969" y1="82.5" x2="52.9286" y2="28.422" gradientUnits="userSpaceOnUse">
<stop stop-color="#00F0FF"/>
<stop offset="0.999905" stop-color="#E5F96E"/>
</linearGradient>
</defs>
</svg>
