<svg width="134" height="134" viewBox="0 0 134 134" fill="none" xmlns="http://www.w3.org/2000/svg">
<rect width="134" height="134" rx="4" fill="#08071E"/>
<rect width="134" height="134" rx="4" fill="black" fill-opacity="0.2"/>
<rect width="134" height="134" rx="4" fill="black" fill-opacity="0.2"/>
<path fill-rule="evenodd" clip-rule="evenodd" d="M103 67C103 47.1184 86.8816 31 67 31V40C81.9119 40 94 52.0881 94 67C94 74.4559 90.978 81.2059 86.0913 86.0913L81.6334 81.6334L80.5281 98.0205L96.9166 96.9166L92.4559 92.4559C98.9711 85.9408 103 76.9408 103 67ZM40 67.0001C40 59.5441 43.022 52.7941 47.9073 47.9088H47.9088L52.368 52.368L53.4733 35.981L37.0862 37.0863L41.5441 41.5441C35.0289 48.0593 31 57.0593 31 67.0001C31 86.8816 47.1184 103 67 103V94.0001C52.0881 94.0001 40 81.9119 40 67.0001ZM70.5033 64.7324L74.8802 69.1093H84.381C83.6057 75.564 79.3193 80.9381 73.4863 83.2662V73.6445H67.9138L63.8103 69.2675H49.6382C49.5421 68.5252 49.4922 67.7685 49.4922 67C49.4922 58.0447 56.2162 50.6609 64.8906 49.6191V52.9954L60.5137 57.3723V64.7324H70.5033ZM64.7324 60.5138H72.2507L76.6276 64.8907H84.381C83.4222 56.9079 77.0922 50.5779 69.1094 49.6191V54.7429L64.7324 59.1199V60.5138ZM50.7339 73.4862H61.9826L66.086 77.8631H69.2675V84.3617C68.5252 84.4577 67.7685 84.5077 67 84.5077C59.6223 84.5077 53.3112 79.9441 50.7339 73.4862Z" fill="url(#paint0_linear_81_400)"/>
<defs>
<linearGradient id="paint0_linear_81_400" x1="119.5" y1="82.5" x2="55.9679" y2="24.3668" gradientUnits="userSpaceOnUse">
<stop stop-color="#00F0FF"/>
<stop offset="0.999905" stop-color="#E5F96E"/>
</linearGradient>
</defs>
</svg>
