<svg width="134" height="134" viewBox="0 0 134 134" fill="none" xmlns="http://www.w3.org/2000/svg">
<rect width="134" height="134" rx="4" fill="#08071E"/>
<rect width="134" height="134" rx="4" fill="black" fill-opacity="0.2"/>
<rect width="134" height="134" rx="4" fill="black" fill-opacity="0.2"/>
<path d="M69.3799 77.2759C73.288 76.3712 76.3709 73.2882 77.2757 69.3801C73.3676 70.2849 70.2847 73.3678 69.3799 77.2759Z" fill="url(#paint0_linear_156_514)"/>
<path d="M67 48.0156C56.532 48.0156 48.0156 56.532 48.0156 67C48.0156 76.755 55.4117 84.8138 64.8906 85.8665V81.6143C57.7446 80.5876 52.2344 74.4257 52.2344 67V64.8906H54.3438C59.7087 64.8906 64.4142 67.7671 67 72.0584C69.5858 67.7671 74.2913 64.8906 79.6562 64.8906H81.7656V67C81.7656 74.4256 76.2554 80.5876 69.1094 81.6143V85.8665C78.5883 84.8138 85.9844 76.755 85.9844 67C85.9844 56.532 77.468 48.0156 67 48.0156ZM58.0506 61.0337L55.0675 58.0506L58.0506 55.0675L61.0337 58.0506L58.0506 61.0337ZM69.1094 56.4531H64.8906V52.2344H69.1094V56.4531ZM75.9494 61.0337L72.9663 58.0506L75.9494 55.0675L78.9325 58.0506L75.9494 61.0337Z" fill="url(#paint1_linear_156_514)"/>
<path d="M56.7236 69.3801C57.6284 73.2882 60.7113 76.3712 64.6194 77.2759C63.7147 73.3678 60.6317 70.2849 56.7236 69.3801Z" fill="url(#paint2_linear_156_514)"/>
<path d="M103 74.3543V59.6457L97.4976 58.5452C96.8095 56.0577 95.8191 53.6696 94.541 51.4171L97.6562 46.7444L87.2556 36.3439L82.5829 39.4589C80.3304 38.1809 77.9423 37.1903 75.4548 36.5022L74.3543 31H59.6457L58.5452 36.5024C56.0577 37.1905 53.6695 38.181 51.4171 39.459L46.7444 36.3439L36.3439 46.7444L39.4589 51.4171C38.1809 53.6696 37.1903 56.0577 36.5022 58.5452L31 59.6457V74.3543L36.5024 75.4548C37.1903 77.9422 38.1812 80.3307 39.459 82.5829L36.3439 87.2556L46.7444 97.6562L51.4171 94.5411C53.6696 95.8191 56.0578 96.8097 58.5452 97.4976L59.6457 103H74.3543L75.4548 97.4976C77.9422 96.8095 80.3304 95.8191 82.5829 94.5411L87.2556 97.6561L97.6561 87.2556L94.5411 82.5829C95.819 80.3305 96.8097 77.942 97.4976 75.4548L103 74.3543ZM67 90.2031C54.2058 90.2031 43.7969 79.7942 43.7969 67C43.7969 54.2058 54.2058 43.7969 67 43.7969C79.7942 43.7969 90.2031 54.2058 90.2031 67C90.2031 79.7942 79.7942 90.2031 67 90.2031Z" fill="url(#paint3_linear_156_514)"/>
<defs>
<linearGradient id="paint0_linear_156_514" x1="79.0852" y1="75.0278" x2="72.118" y2="68.6527" gradientUnits="userSpaceOnUse">
<stop stop-color="#00F0FF"/>
<stop offset="0.999905" stop-color="#E5F96E"/>
</linearGradient>
<linearGradient id="paint1_linear_156_514" x1="94.6856" y1="75.0895" x2="61.2773" y2="44.425" gradientUnits="userSpaceOnUse">
<stop stop-color="#00F0FF"/>
<stop offset="0.999905" stop-color="#E5F96E"/>
</linearGradient>
<linearGradient id="paint2_linear_156_514" x1="66.4289" y1="75.0278" x2="59.4617" y2="68.6527" gradientUnits="userSpaceOnUse">
<stop stop-color="#00F0FF"/>
<stop offset="0.999905" stop-color="#E5F96E"/>
</linearGradient>
<linearGradient id="paint3_linear_156_514" x1="119.5" y1="82.5" x2="55.9679" y2="24.3667" gradientUnits="userSpaceOnUse">
<stop stop-color="#00F0FF"/>
<stop offset="0.999905" stop-color="#E5F96E"/>
</linearGradient>
</defs>
</svg>
