
<svg width="134" height="134" viewBox="0 0 134 134" fill="none" xmlns="http://www.w3.org/2000/svg">
<rect width="134" height="134" rx="4" fill="#002003"/>
<path fill-rule="evenodd" clip-rule="evenodd" d="M64.2008 31C68.0059 31 71.8863 32.9946 74.8477 36.4734C75.6733 37.4429 76.3945 38.4844 77.0026 39.5688H51.399C52.0065 38.4844 52.7278 37.4429 53.5534 36.4728C56.5153 32.9946 60.3962 31 64.2008 31ZM60.5364 77.734L60.5363 77.7062L60.533 75.5935H73.548V70.1223H73.4513L72.2499 66.7665C76.1973 64.2221 78.9055 59.8677 79.2263 54.8716H49.1671C49.3731 58.5988 50.9183 62.0721 53.5715 64.7286C54.4521 65.6097 55.4216 66.3683 56.4598 66.9956L55.4293 70.046V79.0256H60.5385C60.5374 78.5876 60.5369 78.1564 60.5364 77.734ZM43.5042 95.276H60.5544C60.5555 98.3714 60.555 101.065 60.5517 102.881H36V83.8931C36 76.2999 42.1496 70.1223 49.7082 70.1223H51.21V83.2636H60.544C60.5473 85.8278 60.55 88.4887 60.5522 91.0381H47.723V84.4424H43.5042V95.276ZM79.1554 70.1223C83.5444 70.1223 87.5501 72.2454 90.0835 75.5935H77.7667V70.1223H79.1554ZM89.4205 50.6331V46.9587H79.2356C79.1779 45.9134 79.0065 44.8559 78.7297 43.8067H49.6714C49.394 44.8559 49.2226 45.9134 49.1649 46.9587H39.3459V50.6331H89.4205ZM64.7683 103C64.7776 100.016 64.7787 93.6281 64.7584 79.8122H98.0936V103H64.7683ZM79.1043 90.8617C79.1554 92.0098 80.031 92.981 81.2137 92.981C82.3167 92.981 83.3741 92.006 83.3231 90.8617C83.272 89.7137 82.3964 88.743 81.2137 88.743C80.1101 88.743 79.0532 89.7175 79.1043 90.8617Z" fill="url(#paint0_linear_1316_4899)"/>
<defs>
<linearGradient id="paint0_linear_1316_4899" x1="5.64333" y1="66.9998" x2="54.0598" y2="127.014" gradientUnits="userSpaceOnUse">
<stop stop-color="#F2FAF3"/>
<stop offset="0.435417" stop-color="#4CED5B"/>
<stop offset="1" stop-color="#2B6030"/>
</linearGradient>
</defs>
</svg>
