<svg width="409" height="96" viewBox="0 0 409 96" fill="none" xmlns="http://www.w3.org/2000/svg">
<path d="M108.898 39.2725C111.341 39.2725 114.059 39.3565 116.416 40.9316C117.988 41.9607 119.835 43.9979 119.835 47.6313C119.835 51.6216 117.266 56.3261 110.215 56.3261H104.269V67.2681H99.0654V39.2725H108.898ZM109.089 52.2307C110.236 52.2307 111.893 52.2727 113.231 51.0546C114.144 50.2355 114.632 48.8494 114.632 47.6733C114.632 46.5812 114.186 45.258 113.273 44.481C112.36 43.7039 110.916 43.3469 109.302 43.3469H104.269V52.2517H109.089V52.2307Z" fill="white"/>
<path d="M124.626 48.5788C126.07 47.2347 128.215 46.0586 131.443 46.0586C134.671 46.0586 136.816 47.2347 138.26 48.5788C140.405 50.574 141.51 53.6823 141.51 56.8536C141.51 60.0249 140.405 63.1332 138.26 65.1284C136.816 66.4725 134.671 67.6696 131.443 67.6696C128.236 67.6696 126.07 66.4935 124.626 65.1284C122.481 63.1332 121.355 60.0249 121.355 56.8536C121.355 53.6823 122.481 50.574 124.626 48.5788ZM128.13 62.7342C128.576 63.2592 129.617 64.2463 131.422 64.2463C133.248 64.2463 134.268 63.2802 134.714 62.7342C135.053 62.3771 136.285 60.739 136.285 56.8536C136.285 52.9682 135.053 51.3511 134.714 50.9731C134.268 50.448 133.227 49.4609 131.422 49.4609C129.617 49.4609 128.576 50.427 128.13 50.9731C127.812 51.3511 126.559 52.9682 126.559 56.8536C126.559 60.718 127.812 62.3561 128.13 62.7342Z" fill="white"/>
<path d="M157.946 54.0789C157.861 53.0288 157.457 51.7897 156.905 51.0126C156.417 50.2776 155.419 49.4585 153.783 49.4585C152.169 49.4585 151.086 50.2776 150.428 51.3697C149.387 53.0498 149.323 55.6541 149.323 56.8512C149.323 58.7624 149.6 61.0516 150.428 62.3537C150.959 63.1728 152.042 64.2229 153.783 64.2229C155.015 64.2229 156.034 63.7398 156.841 62.6687C157.457 61.8077 157.882 60.5895 157.967 59.5184L162.342 60.0435C162.087 61.9547 161.238 64.0969 159.708 65.462C158.434 66.5961 156.438 67.6252 153.635 67.6252C150.513 67.6252 148.474 66.4071 147.285 65.294C145.671 63.7818 144.142 61.0936 144.142 56.8512C144.142 52.9028 145.501 50.5296 146.563 49.2695C148.092 47.4633 150.683 45.9932 153.741 45.9932C156.332 45.9932 158.498 46.8962 159.836 48.2824C161.195 49.6265 162.023 51.6637 162.321 53.4909L157.946 54.0789Z" fill="white"/>
<path d="M178.42 54.0789C178.335 53.0288 177.932 51.7897 177.401 51.0126C176.913 50.2776 175.914 49.4585 174.258 49.4585C172.644 49.4585 171.582 50.2776 170.924 51.3697C169.904 53.0498 169.819 55.6541 169.819 56.8512C169.819 58.7624 170.117 61.0516 170.924 62.3537C171.455 63.1728 172.538 64.2229 174.258 64.2229C175.49 64.2229 176.53 63.7398 177.316 62.6687C177.932 61.8077 178.335 60.5895 178.42 59.5184L182.795 60.0435C182.54 61.9547 181.691 64.0969 180.162 65.462C178.866 66.5961 176.913 67.6252 174.088 67.6252C170.945 67.6252 168.927 66.4071 167.738 65.294C166.124 63.7818 164.616 61.0936 164.616 56.8512C164.616 52.9028 165.975 50.5296 167.058 49.2695C168.566 47.4633 171.179 45.9932 174.237 45.9932C176.828 45.9932 178.973 46.8962 180.353 48.2824C181.712 49.6265 182.54 51.6637 182.838 53.4909L178.42 54.0789Z" fill="white"/>
<path d="M204.849 61.2206C204.106 63.6568 202.62 65.0849 201.388 65.946C199.731 67.0591 197.586 67.6682 195.314 67.6682C192.468 67.6682 189.58 66.4711 187.838 64.7279C186.224 63.1108 185.035 60.2755 185.035 56.9362C185.035 52.6938 186.819 49.8795 188.752 48.2833C189.877 47.3593 191.98 46.0361 195.144 46.0361C199.158 46.0361 201.706 47.8633 203.066 49.7535C204.51 51.7067 205.168 54.4579 205.168 56.8102V57.7552H190.238C190.238 57.9863 190.196 59.8765 190.939 61.3886C192.043 63.6778 194.082 64.2449 195.484 64.2449C196.609 64.2449 197.99 63.9088 199.158 62.7327C199.859 61.9977 200.135 61.3046 200.262 60.6535L204.849 61.2206ZM199.986 54.647C199.986 53.4708 199.71 52.1267 199.073 51.2236C198.287 50.0895 196.886 49.3125 195.356 49.3125C193.785 49.3125 192.426 50.0895 191.597 51.0556C190.939 51.8747 190.366 53.1348 190.366 54.647H199.986Z" fill="white"/>
<path d="M225.568 46.4575V67.2705H220.769V49.9649H215.332C215.204 52.7791 215.119 53.9132 215.034 55.8454C214.907 58.0086 214.737 62.5661 212.89 65.0653C211.87 66.4094 210.596 66.9345 209.683 67.1865C209.152 67.3545 208.578 67.4385 207.984 67.4385C207.58 67.4385 207.155 67.3965 206.752 67.2705V63.6581H207.155C207.771 63.6161 208.6 63.3011 209.152 62.8811C210.808 61.579 210.957 58.6387 211.127 56.3075C211.339 53.2412 211.382 51.414 211.403 48.6417L211.445 46.4365H225.568V46.4575Z" fill="white"/>
<path d="M235.385 53.8658H240.673C242.032 53.8658 244.686 54.0339 246.407 55.756C247.978 57.2682 248.127 59.3894 248.127 60.5235C248.127 63.5058 246.895 65.0179 245.939 65.795C245.6 66.047 244.049 67.2651 241.055 67.2651H230.585V46.4521H235.363V53.8658H235.385ZM235.385 63.8208H239.144C240.057 63.8208 241.034 63.7788 241.862 63.0857C242.35 62.6237 242.945 61.8676 242.945 60.5445C242.945 59.4104 242.605 58.5073 241.671 57.8982C240.843 57.3732 239.802 57.2892 239.144 57.2892H235.385V63.8208Z" fill="white"/>
<path d="M255.094 46.4521L258.98 52.9207L263.016 46.4521H267.39L261.232 55.861L268.537 67.2441H262.931L258.152 59.4104L253.119 67.2441H248.744L255.922 56.4491L249.487 46.4521H255.094Z" fill="white"/>
<path d="M272.239 48.5788C273.683 47.2347 275.828 46.0586 279.035 46.0586C282.263 46.0586 284.408 47.2347 285.852 48.5788C287.997 50.574 289.102 53.6823 289.102 56.8536C289.102 60.0249 287.976 63.1332 285.852 65.1284C284.408 66.4725 282.263 67.6696 279.035 67.6696C275.807 67.6696 273.683 66.4935 272.239 65.1284C270.094 63.1332 268.969 60.0249 268.969 56.8536C268.99 53.6823 270.094 50.574 272.239 48.5788ZM275.743 62.7342C276.189 63.2592 277.23 64.2463 279.035 64.2463C280.862 64.2463 281.881 63.2802 282.348 62.7342C282.667 62.3771 283.92 60.739 283.92 56.8536C283.92 52.9682 282.688 51.3511 282.348 50.9731C281.902 50.448 280.862 49.4609 279.035 49.4609C277.23 49.4609 276.189 50.427 275.743 50.9731C275.425 51.3511 274.172 52.9682 274.172 56.8536C274.172 60.718 275.425 62.3561 275.743 62.7342Z" fill="white"/>
<path d="M291.668 52.0862C292.284 49.5659 293.898 48.1798 295.045 47.4867C295.746 47.0457 297.679 46.0586 300.992 46.0586C303.052 46.0586 305.154 46.4156 306.726 47.2767C309.04 48.5368 309.614 50.364 309.614 51.6871C309.614 53.1153 308.913 55.8455 305.324 56.2446V56.3286C306.556 56.4966 307.936 57.0216 308.743 57.8827C309.486 58.6598 310.06 59.9619 310.06 61.348C310.06 63.4272 308.828 65.2754 307.256 66.2835C305.366 67.5016 302.754 67.6696 300.822 67.6696C298.868 67.6696 295.916 67.4596 293.835 65.8425C292.688 64.9394 291.605 63.3852 291.286 61.432L295.619 60.697C295.788 61.348 296.149 62.3351 296.659 62.9022C297.721 64.1413 299.42 64.2463 300.503 64.2463C301.565 64.2463 302.733 64.1203 303.625 63.5112C304.453 62.9442 304.857 62.1671 304.857 61.138C304.857 60.2769 304.687 59.5839 303.965 58.9748C303.009 58.1977 301.735 58.0717 300.546 58.0717H298.358V54.8794H300.546C301.374 54.8794 302.563 54.7114 303.221 54.3964C304.092 53.9553 304.581 53.2203 304.581 52.0232C304.581 51.3721 304.326 50.742 303.71 50.259C302.754 49.4819 301.395 49.4399 300.694 49.4399C299.739 49.4399 298.337 49.5659 297.19 50.532C296.702 50.931 296.043 51.7081 295.831 52.9472L291.668 52.0862Z" fill="white"/>
<path d="M334.548 44.1659H320.893V50.3615H326.967C329.154 50.3615 331.257 50.5295 333.402 51.9997C335.504 53.4278 336.821 55.549 336.821 58.6153C336.821 61.4716 335.759 63.5928 334.378 64.9369C332.318 66.9741 329.961 67.2681 327.498 67.2681H314.288V39.2725H334.548V44.1659ZM320.893 62.3537H326.223C327.222 62.3537 328.135 62.3116 329.069 61.3666C329.982 60.4635 330.11 59.4554 330.11 58.6783C330.11 57.7752 329.855 56.8931 329.069 56.1161C328.135 55.192 326.924 55.087 326.054 55.087H320.893V62.3537Z" fill="white"/>
<path d="M340.217 52.2542C340.876 49.4399 342.744 48.0118 343.849 47.3607C345.484 46.4156 347.671 46.0586 350.39 46.0586C353.851 46.0586 357.377 46.4996 358.927 49.7339C359.755 51.3931 359.67 53.1993 359.67 54.7534V62.7972C359.67 64.4773 359.925 66.0315 360.286 67.2916H354.297C354.128 66.4725 354.021 65.3804 353.979 63.9943C353.193 65.3804 351.303 67.7116 346.928 67.7116C344.996 67.7116 342.999 67.2286 341.64 66.1155C340.323 65.0444 339.495 63.3432 339.495 61.4741C339.495 59.3949 340.408 56.8956 343.997 55.4255C346.312 54.4804 350.071 54.1654 351.77 54.0814L353.745 53.9973V53.5563C353.745 52.9892 353.703 51.7711 353.129 51.0991C352.344 50.196 350.772 50.175 350.156 50.175C349.307 50.175 348.266 50.259 347.395 50.784C346.864 51.0991 346.164 51.7711 345.909 52.9052L340.217 52.2542ZM351.898 57.4207C349.838 57.5887 347.778 57.7987 346.61 59.2058C346.291 59.6049 345.951 60.2349 345.951 61.075C345.951 61.9781 346.397 62.5871 346.864 62.9022C347.438 63.3432 348.309 63.5533 349.137 63.5533C350.369 63.5533 351.813 63.0282 352.641 62.0411C352.768 61.9151 353.745 60.697 353.745 58.3238V57.2316L351.898 57.4207Z" fill="white"/>
<path d="M370.612 46.4521V54.2439H377.259V46.4521H383.397V67.2441H377.259V58.5073H370.612V67.2441H364.475V46.4521H370.612Z" fill="white"/>
<path d="M394.333 46.4575V54.4593H395.989C397.773 54.4593 398.517 53.5982 398.963 52.6531C399.833 50.8259 399.791 49.3978 400.577 47.9697C401.192 46.8356 402.021 46.5415 402.552 46.4575H407.627C406.969 47.1506 406.396 47.9697 406.013 48.7047C405.355 50.0489 404.739 52.2541 404.357 53.1992C403.868 54.5013 403.04 55.8034 400.938 55.9714V56.0554C402.063 56.2235 403.21 56.7905 404.081 58.0506C404.612 58.8277 404.973 59.8358 405.567 61.4319C406.141 63.0701 406.396 63.6371 406.927 64.8973C407.351 65.8424 407.585 66.4094 408.286 67.2705H402.509C401.596 66.9765 400.98 66.3674 400.237 64.2462C399.663 62.6081 399.578 62.041 399.196 61.1379L398.899 60.4028C398.283 58.8487 397.455 58.5127 396.181 58.5127H394.333V67.2495H388.195V46.4365H394.333V46.4575Z" fill="white"/>
<path fill-rule="evenodd" clip-rule="evenodd" d="M29.333 54.0151L38.7836 44.8372V38.5996L29.333 47.7355V54.0151Z" fill="white"/>
<path fill-rule="evenodd" clip-rule="evenodd" d="M29.333 30.7718L38.7836 21.5729V15.6924L29.333 24.8282V30.7718Z" fill="white"/>
<path fill-rule="evenodd" clip-rule="evenodd" d="M29.333 38.4539L38.7836 29.2761V23.3955L29.333 32.5314V38.4539Z" fill="white"/>
<path fill-rule="evenodd" clip-rule="evenodd" d="M26.6261 15.7725L25.3731 14.5544V0H23.9289V13.1682L22.6972 11.9501V0H21.2743V10.585L20 9.36688V0H18.5771V13.8823L28.0489 23.0602V0H26.6261V15.7725Z" fill="white"/>
<path fill-rule="evenodd" clip-rule="evenodd" d="M29.333 46.1595L38.7836 36.9606V31.0801L29.333 40.2159V46.1595Z" fill="white"/>
<path fill-rule="evenodd" clip-rule="evenodd" d="M18.5771 44.8372L28.0489 54.0151V47.7355L18.5771 38.5996V44.8372Z" fill="white"/>
<path fill-rule="evenodd" clip-rule="evenodd" d="M37.3616 9.36688L36.1087 10.585V0H34.6858V11.9711L33.4328 13.1682V0H32.0099V14.5544L30.7569 15.7515V0H29.334V23.0602L38.7845 13.8823V0H37.3616V9.36688Z" fill="white"/>
<path fill-rule="evenodd" clip-rule="evenodd" d="M18.5771 21.5729L28.0489 30.7718V24.8282L18.5771 15.6924V21.5729Z" fill="white"/>
<path fill-rule="evenodd" clip-rule="evenodd" d="M18.5771 29.2761L28.0489 38.4539V32.5314L18.5771 23.3955V29.2761Z" fill="white"/>
<path fill-rule="evenodd" clip-rule="evenodd" d="M18.5771 36.9606L28.0489 46.1595V40.2159L18.5771 31.0801V36.9606Z" fill="white"/>
<path fill-rule="evenodd" clip-rule="evenodd" d="M74.9295 41.8127H52.9278H51.9296C52.4181 41.0566 52.6941 40.1745 52.6941 39.2294C52.6941 36.5201 50.4642 34.3359 47.7246 34.3359C44.985 34.3359 42.7764 36.5412 42.7764 39.2294C42.7764 40.3005 43.1162 41.2666 43.7108 42.0647C43.286 42.3377 42.9887 42.8208 42.9887 43.3878C42.9887 43.9339 43.286 44.4169 43.7108 44.6899C43.1374 45.488 42.7764 46.4751 42.7764 47.5252C42.7764 50.2344 44.985 52.4187 47.7246 52.4187C50.4642 52.4187 52.6941 50.2344 52.6941 47.5252C52.6941 46.5801 52.4181 45.677 51.9296 44.9419H56.0921H69.0468V45.971H67.3478V47.4202H69.0468V48.9113H67.3478V51.6626H69.0468V50.4235H71.5528V51.6626H73.2305V48.9113H71.5528V47.4202H73.2305V45.971H71.5528V44.9419H74.9295C75.5879 44.9419 76.1188 44.3959 76.1188 43.7448V43.0098C76.1188 42.3587 75.5879 41.8127 74.9295 41.8127ZM50.2943 47.5252C50.2943 48.9113 49.1475 50.0454 47.7246 50.0454C46.323 50.0454 45.1762 48.9113 45.1762 47.5252C45.1762 47.0211 45.3248 46.5381 45.6009 46.1391L46.3017 44.9419C45.8558 44.5639 45.5797 43.9969 45.5797 43.3668C45.5797 42.7367 45.8558 42.1697 46.3017 41.7917L45.6009 40.5945C45.3248 40.1955 45.1762 39.7334 45.1762 39.2084C45.1762 37.8223 46.323 36.6882 47.7246 36.6882C49.1475 36.6882 50.2943 37.8223 50.2943 39.2084C50.2943 40.2375 49.105 42.6947 49.105 42.6947V44.0179C49.105 44.0389 50.2943 46.4961 50.2943 47.5252Z" fill="white"/>
<path fill-rule="evenodd" clip-rule="evenodd" d="M10 38.832V44.9436C10 50.7822 12.5697 54.5415 14.0563 55.9907C14.927 56.8307 23.7192 65.3785 23.8467 65.5046C26.5863 68.1508 27.0535 69.0329 27.6694 70.524V63.7614C27.6694 57.7338 24.59 55.4026 22.9972 53.8695C19.3019 50.2991 16.8171 47.9469 14.8208 45.9727C10.9981 42.2134 10 38.832 10 38.832Z" fill="white"/>
<path fill-rule="evenodd" clip-rule="evenodd" d="M22.9759 68.9698C19.2807 65.3785 16.7959 63.0472 14.7996 61.0731C10.9982 57.3137 10 54.7725 10 54.7725V60.044C10 65.8825 12.6759 69.5999 14.0351 71.133C14.9058 71.9731 23.7192 80.4999 23.8254 80.6049C26.565 83.2511 27.0322 84.5113 27.6481 86.0024V78.8617C27.6481 72.8342 24.5475 70.503 22.9759 68.9698Z" fill="white"/>
<path fill-rule="evenodd" clip-rule="evenodd" d="M42.4744 11.3008C41.7948 11.3008 41.1152 11.3218 40.4356 11.3428V14.1991C41.094 14.1571 41.7736 14.136 42.4744 14.136C64.3275 14.136 82.0393 31.6517 82.0393 53.2838C82.0393 74.8948 64.3275 92.4105 42.4744 92.4105C20.6213 92.4105 2.88826 74.8948 2.88826 53.2838C2.88826 41.2916 8.34622 30.5596 16.9473 23.3769V19.7226C6.64725 27.3883 0 39.5695 0 53.2838C0 76.47 19.0073 95.2667 42.4744 95.2667C65.9203 95.2667 84.9276 76.47 84.9276 53.2838C84.9276 30.1186 65.9203 11.3008 42.4744 11.3008Z" fill="white"/>
<path fill-rule="evenodd" clip-rule="evenodd" d="M72.5078 75.2255C73.1662 74.3434 73.782 73.4193 74.3767 72.4742V66.8457H72.5078V75.2255Z" fill="white"/>
<path fill-rule="evenodd" clip-rule="evenodd" d="M77.9602 64.7902C78.2363 63.9712 78.4699 63.1521 78.6822 62.333H72.5234V63.8241H73.4579C75.0719 63.7821 76.9196 63.7611 77.9602 64.7902Z" fill="white"/>
<path d="M36.9317 62.123H35.2539V78.8616H36.9317V62.123Z" fill="white"/>
<path fill-rule="evenodd" clip-rule="evenodd" d="M31.4053 58.9072H36.927C38.3499 58.9072 39.348 59.2012 39.9214 59.7473C40.4948 60.2933 40.7709 61.2804 40.7709 62.6876V78.334C40.7709 79.7412 40.4948 80.7283 39.9214 81.2743C39.0507 82.1354 37.4366 82.1354 36.0987 82.1354C35.8014 82.1144 35.5041 82.1144 35.2492 82.1144V89.5281C35.8014 89.6331 36.3536 89.7381 36.927 89.8221V83.7316C39.4754 83.7316 41.1319 82.8705 41.9177 81.1483V90.2212C42.0876 90.2212 42.2787 90.2212 42.4699 90.2212C42.8309 90.2212 43.1707 90.2212 43.5317 90.2002V62.9606C43.5317 61.5115 43.829 60.5034 44.3812 59.9363C44.9334 59.3482 45.9315 59.0752 47.3332 59.0752C48.7561 59.0752 50.8586 58.8652 51.9417 59.9363C52.4938 60.5034 52.7487 61.5325 52.7487 62.9606V70.9833H48.9685V62.4145H47.3332V89.9061C47.8853 89.8431 48.4163 89.7591 48.9685 89.6541V72.6005H52.7487V88.793C53.5344 88.583 54.299 88.331 55.0635 88.058V73.2306C55.0635 71.5504 55.467 70.2903 57.2085 69.7022L55.2971 59.3902H59.1198L59.757 70.6473H60.2242L60.8613 59.3902H64.8964L62.7302 69.7022C64.5353 70.3323 64.8964 71.4244 64.8964 73.2306V82.8075C66.0219 81.9674 67.0838 81.0853 68.1032 80.1192V59.3062H79.2952C79.3801 58.8022 79.4438 58.3192 79.5075 57.7941H53.2796L53.6406 59.6633C52.8124 58.1511 51.2408 57.3951 48.926 57.3951H47.2907C44.5086 57.3951 42.8097 58.4872 42.1725 60.6714C41.5779 58.3821 39.8152 57.248 36.9057 57.248H29.7275V88.016C30.2797 88.205 30.8319 88.394 31.384 88.562V58.9072H31.4053ZM66.2131 70.7313L64.4079 69.0302L66.2131 59.7893V70.7313Z" fill="white"/>
<path fill-rule="evenodd" clip-rule="evenodd" d="M59.0996 86.3573C59.673 86.0633 60.2464 85.7693 60.8198 85.4542V72.79H59.0996V86.3573Z" fill="white"/>
</svg>
