<svg width="360" height="85" viewBox="0 0 360 85" fill="none" xmlns="http://www.w3.org/2000/svg">
<path d="M96.0196 35.2283C98.173 35.2283 100.57 35.3024 102.648 36.6913C104.034 37.5987 105.663 39.3949 105.663 42.5986C105.663 46.117 103.397 50.2651 97.1806 50.2651H91.9374V59.9131H87.3496V35.2283H96.0196ZM96.1881 46.6541C97.1993 46.6541 98.6599 46.6911 99.8396 45.6171C100.645 44.8948 101.075 43.6726 101.075 42.6356C101.075 41.6727 100.682 40.506 99.8771 39.8209C99.0719 39.1357 97.7985 38.8209 96.3754 38.8209H91.9374V46.6726H96.1881V46.6541Z" fill="white"/>
<path d="M109.888 43.4335C111.161 42.2484 113.052 41.2114 115.899 41.2114C118.745 41.2114 120.636 42.2484 121.909 43.4335C123.801 45.1928 124.775 47.9335 124.775 50.7297C124.775 53.526 123.801 56.2667 121.909 58.0259C120.636 59.2111 118.745 60.2666 115.899 60.2666C113.071 60.2666 111.161 59.2296 109.888 58.0259C107.996 56.2667 107.004 53.526 107.004 50.7297C107.004 47.9335 107.996 45.1928 109.888 43.4335ZM112.977 55.9148C113.371 56.3778 114.288 57.2481 115.88 57.2481C117.49 57.2481 118.389 56.3963 118.782 55.9148C119.082 55.6 120.168 54.1556 120.168 50.7297C120.168 47.3039 119.082 45.878 118.782 45.5446C118.389 45.0817 117.472 44.2113 115.88 44.2113C114.288 44.2113 113.371 45.0632 112.977 45.5446C112.696 45.878 111.592 47.3039 111.592 50.7297C111.592 54.1371 112.696 55.5815 112.977 55.9148Z" fill="white"/>
<path d="M139.266 48.2834C139.191 47.3575 138.836 46.265 138.349 45.5798C137.918 44.9316 137.038 44.2094 135.596 44.2094C134.173 44.2094 133.218 44.9316 132.638 45.8946C131.72 47.376 131.664 49.6723 131.664 50.7278C131.664 52.413 131.907 54.4315 132.638 55.5796C133.106 56.3018 134.061 57.2277 135.596 57.2277C136.682 57.2277 137.581 56.8018 138.293 55.8574C138.836 55.0981 139.21 54.0241 139.285 53.0797L143.143 53.5426C142.918 55.2278 142.169 57.1166 140.821 58.3203C139.697 59.3203 137.937 60.2277 135.465 60.2277C132.712 60.2277 130.915 59.1536 129.866 58.1722C128.443 56.8389 127.095 54.4685 127.095 50.7278C127.095 47.2464 128.293 45.1539 129.229 44.0428C130.578 42.4502 132.862 41.1539 135.559 41.1539C137.843 41.1539 139.753 41.9502 140.933 43.1724C142.131 44.3576 142.862 46.1538 143.124 47.7649L139.266 48.2834Z" fill="white"/>
<path d="M157.319 48.2834C157.244 47.3575 156.888 46.265 156.42 45.5798C155.99 44.9316 155.11 44.2094 153.649 44.2094C152.226 44.2094 151.289 44.9316 150.709 45.8946C149.81 47.376 149.735 49.6723 149.735 50.7278C149.735 52.413 149.997 54.4315 150.709 55.5796C151.177 56.3018 152.132 57.2277 153.649 57.2277C154.735 57.2277 155.653 56.8018 156.345 55.8574C156.888 55.0981 157.244 54.0241 157.319 53.0797L161.177 53.5426C160.952 55.2278 160.203 57.1166 158.855 58.3203C157.712 59.3203 155.99 60.2277 153.499 60.2277C150.728 60.2277 148.949 59.1536 147.9 58.1722C146.477 56.8389 145.147 54.4685 145.147 50.7278C145.147 47.2464 146.346 45.1539 147.301 44.0428C148.63 42.4502 150.934 41.1539 153.63 41.1539C155.915 41.1539 157.806 41.9502 159.023 43.1724C160.222 44.3576 160.952 46.1538 161.214 47.7649L157.319 48.2834Z" fill="white"/>
<path d="M180.623 54.5806C179.968 56.7287 178.657 57.988 177.571 58.7472C176.11 59.7287 174.219 60.2657 172.216 60.2657C169.706 60.2657 167.16 59.2102 165.624 57.6732C164.201 56.2473 163.152 53.7473 163.152 50.8029C163.152 47.0622 164.725 44.5808 166.429 43.1734C167.422 42.3586 169.276 41.192 172.066 41.192C175.605 41.192 177.852 42.803 179.05 44.4697C180.324 46.1919 180.904 48.6178 180.904 50.6918V51.5251H167.74C167.74 51.7288 167.703 53.3955 168.358 54.7288C169.332 56.7473 171.129 57.2473 172.365 57.2473C173.358 57.2473 174.575 56.951 175.605 55.9139C176.223 55.2658 176.466 54.6547 176.579 54.0806L180.623 54.5806ZM176.335 48.7844C176.335 47.7474 176.092 46.5622 175.53 45.766C174.837 44.766 173.601 44.0808 172.253 44.0808C170.867 44.0808 169.669 44.766 168.939 45.6178C168.358 46.34 167.852 47.4511 167.852 48.7844H176.335Z" fill="white"/>
<path d="M198.892 41.5633V59.9149H194.66V44.6559H189.866C189.754 47.1373 189.679 48.1373 189.604 49.841C189.491 51.7483 189.342 55.7668 187.712 57.9705C186.814 59.1556 185.69 59.6186 184.885 59.8408C184.417 59.9889 183.911 60.063 183.387 60.063C183.031 60.063 182.657 60.026 182.301 59.9149V56.7297H182.657C183.2 56.6927 183.93 56.4149 184.417 56.0446C185.877 54.8964 186.008 52.3039 186.158 50.2484C186.346 47.5447 186.383 45.9336 186.402 43.4892L186.439 41.5448H198.892V41.5633Z" fill="white"/>
<path d="M207.546 48.0958H212.209C213.408 48.0958 215.748 48.2439 217.265 49.7624C218.651 51.0957 218.782 52.9661 218.782 53.966C218.782 56.5956 217.696 57.9289 216.853 58.6141C216.553 58.8363 215.186 59.9104 212.546 59.9104H203.314V41.5588H207.528V48.0958H207.546ZM207.546 56.8734H210.861C211.666 56.8734 212.527 56.8364 213.258 56.2253C213.688 55.8179 214.213 55.1512 214.213 53.9846C214.213 52.9846 213.913 52.1883 213.089 51.6513C212.359 51.1883 211.441 51.1142 210.861 51.1142H207.546V56.8734Z" fill="white"/>
<path d="M224.926 41.5588L228.353 47.2624L231.911 41.5588H235.768L230.338 49.855L236.779 59.8919H231.836L227.623 52.9846L223.185 59.8919H219.327L225.656 50.3735L219.983 41.5588H224.926Z" fill="white"/>
<path d="M240.043 43.4335C241.316 42.2484 243.208 41.2114 246.035 41.2114C248.881 41.2114 250.773 42.2484 252.046 43.4335C253.937 45.1928 254.911 47.9335 254.911 50.7297C254.911 53.526 253.919 56.2667 252.046 58.0259C250.773 59.2111 248.881 60.2666 246.035 60.2666C243.189 60.2666 241.316 59.2296 240.043 58.0259C238.152 56.2667 237.159 53.526 237.159 50.7297C237.178 47.9335 238.152 45.1928 240.043 43.4335ZM243.133 55.9148C243.526 56.3778 244.443 57.2481 246.035 57.2481C247.646 57.2481 248.544 56.3963 248.956 55.9148C249.237 55.6 250.342 54.1556 250.342 50.7297C250.342 47.3039 249.256 45.878 248.956 45.5446C248.563 45.0817 247.646 44.2113 246.035 44.2113C244.443 44.2113 243.526 45.0632 243.133 45.5446C242.852 45.878 241.747 47.3039 241.747 50.7297C241.747 54.1371 242.852 55.5815 243.133 55.9148Z" fill="white"/>
<path d="M257.175 46.5261C257.718 44.3039 259.141 43.0817 260.152 42.4706C260.77 42.0817 262.474 41.2114 265.395 41.2114C267.212 41.2114 269.066 41.5262 270.451 42.2854C272.492 43.3965 272.998 45.0076 272.998 46.1742C272.998 47.4335 272.38 49.8408 269.215 50.1927V50.2668C270.302 50.4149 271.519 50.8779 272.23 51.6371C272.886 52.3223 273.391 53.4704 273.391 54.6926C273.391 56.5259 272.305 58.1555 270.92 59.0444C269.253 60.1185 266.95 60.2666 265.246 60.2666C263.523 60.2666 260.92 60.0814 259.085 58.6555C258.074 57.8592 257.119 56.4889 256.838 54.7667L260.658 54.1186C260.808 54.6926 261.126 55.563 261.575 56.063C262.512 57.1555 264.01 57.2481 264.965 57.2481C265.901 57.2481 266.931 57.137 267.717 56.6C268.448 56.1 268.804 55.4148 268.804 54.5074C268.804 53.7482 268.654 53.1371 268.017 52.6001C267.174 51.9149 266.051 51.8038 265.002 51.8038H263.073V48.989H265.002C265.733 48.989 266.781 48.8409 267.362 48.5631C268.129 48.1742 268.56 47.5261 268.56 46.4705C268.56 45.8965 268.335 45.3409 267.792 44.915C266.95 44.2298 265.751 44.1928 265.133 44.1928C264.291 44.1928 263.055 44.3039 262.044 45.1557C261.613 45.5076 261.032 46.1928 260.845 47.2853L257.175 46.5261Z" fill="white"/>
<path d="M294.984 39.5431H282.944V45.006H288.299C290.228 45.006 292.082 45.1541 293.973 46.4504C295.827 47.7096 296.988 49.58 296.988 52.2836C296.988 54.8021 296.052 56.6724 294.835 57.8576C293.018 59.6539 290.94 59.9131 288.767 59.9131H277.12V35.2283H294.984V39.5431ZM282.944 55.5799H287.644C288.524 55.5799 289.329 55.5428 290.153 54.7095C290.958 53.9132 291.071 53.0243 291.071 52.3392C291.071 51.5429 290.846 50.7651 290.153 50.0799C289.329 49.2651 288.262 49.1726 287.494 49.1726H282.944V55.5799Z" fill="white"/>
<path d="M299.982 46.6742C300.563 44.1928 302.211 42.9336 303.184 42.3595C304.626 41.5262 306.555 41.2114 308.952 41.2114C312.004 41.2114 315.113 41.6002 316.48 44.4521C317.21 45.915 317.135 47.5076 317.135 48.8779V55.9704C317.135 57.4518 317.36 58.8222 317.678 59.9333H312.397C312.248 59.2111 312.154 58.2481 312.117 57.0259C311.424 58.2481 309.757 60.3036 305.9 60.3036C304.196 60.3036 302.435 59.8777 301.237 58.8963C300.076 57.9518 299.346 56.4519 299.346 54.8037C299.346 52.9704 300.151 50.7668 303.316 49.4705C305.357 48.6372 308.671 48.3594 310.169 48.2853L311.911 48.2112V47.8224C311.911 47.3224 311.873 46.2483 311.368 45.6557C310.675 44.8595 309.289 44.8409 308.746 44.8409C307.997 44.8409 307.079 44.915 306.312 45.378C305.843 45.6557 305.226 46.2483 305.001 47.2483L299.982 46.6742ZM310.281 51.2297C308.465 51.3779 306.649 51.5631 305.619 52.8038C305.338 53.1556 305.038 53.7112 305.038 54.4519C305.038 55.2482 305.432 55.7852 305.843 56.063C306.349 56.4518 307.117 56.637 307.847 56.637C308.933 56.637 310.207 56.1741 310.937 55.3037C311.049 55.1926 311.911 54.1186 311.911 52.026V51.0631L310.281 51.2297Z" fill="white"/>
<path d="M326.782 41.5588V48.4291H332.643V41.5588H338.055V59.8919H332.643V52.1883H326.782V59.8919H321.37V41.5588H326.782Z" fill="white"/>
<path d="M347.697 41.5633V48.6188H349.157C350.73 48.6188 351.386 47.8595 351.779 47.0262C352.547 45.4151 352.509 44.1559 353.202 42.8966C353.745 41.8967 354.476 41.6374 354.944 41.5633H359.419C358.839 42.1744 358.333 42.8966 357.996 43.5448C357.415 44.7299 356.872 46.6743 356.535 47.5077C356.105 48.6558 355.374 49.8039 353.521 49.9521V50.0261C354.513 50.1743 355.524 50.6743 356.292 51.7854C356.76 52.4705 357.078 53.3594 357.603 54.7668C358.108 56.2112 358.333 56.7112 358.801 57.8223C359.176 58.6556 359.382 59.1556 360 59.9149H354.906C354.101 59.6556 353.558 59.1186 352.903 57.2483C352.397 55.8038 352.322 55.3038 351.985 54.5075L351.723 53.8594C351.18 52.4891 350.45 52.1928 349.326 52.1928H347.697V59.8964H342.285V41.5448H347.697V41.5633Z" fill="white"/>
<path fill-rule="evenodd" clip-rule="evenodd" d="M25.8643 48.2271L34.1972 40.1347V34.6348L25.8643 42.6902V48.2271Z" fill="white"/>
<path fill-rule="evenodd" clip-rule="evenodd" d="M25.8643 27.7324L34.1972 19.6214V14.4363L25.8643 22.4918V27.7324Z" fill="white"/>
<path fill-rule="evenodd" clip-rule="evenodd" d="M25.8643 34.5063L34.1972 26.4138V21.2287L25.8643 29.2841V34.5063Z" fill="white"/>
<path fill-rule="evenodd" clip-rule="evenodd" d="M23.4769 14.5072L22.3721 13.4332V0.600037H21.0987V12.211L20.0127 11.1369V0.600037H18.758V9.93322L17.6345 8.85916V0.600037H16.3799V12.8406L24.7315 20.933V0.600037H23.4769V14.5072Z" fill="white"/>
<path fill-rule="evenodd" clip-rule="evenodd" d="M25.8643 41.3004L34.1972 33.1894V28.0043L25.8643 36.0597V41.3004Z" fill="white"/>
<path fill-rule="evenodd" clip-rule="evenodd" d="M16.3799 40.1347L24.7315 48.2271V42.6902L16.3799 34.6348V40.1347Z" fill="white"/>
<path fill-rule="evenodd" clip-rule="evenodd" d="M32.9425 8.85916L31.8377 9.93322V0.600037H30.5831V11.1554L29.4783 12.211V0.600037H28.2237V13.4332L27.1189 14.4887V0.600037H25.8643V20.933L34.1972 12.8406V0.600037H32.9425V8.85916Z" fill="white"/>
<path fill-rule="evenodd" clip-rule="evenodd" d="M16.3799 19.6214L24.7315 27.7324V22.4918L16.3799 14.4363V19.6214Z" fill="white"/>
<path fill-rule="evenodd" clip-rule="evenodd" d="M16.3799 26.4138L24.7315 34.5063V29.2841L16.3799 21.2287V26.4138Z" fill="white"/>
<path fill-rule="evenodd" clip-rule="evenodd" d="M16.3799 33.1894L24.7315 41.3004V36.0597L16.3799 28.0043V33.1894Z" fill="white"/>
<path fill-rule="evenodd" clip-rule="evenodd" d="M66.0684 37.4679H46.6686H45.7885C46.2192 36.8013 46.4626 36.0235 46.4626 35.1902C46.4626 32.8013 44.4964 30.8754 42.0808 30.8754C39.6652 30.8754 37.7178 32.8198 37.7178 35.1902C37.7178 36.1346 38.0174 36.9864 38.5417 37.6901C38.1672 37.9309 37.905 38.3568 37.905 38.8568C37.905 39.3383 38.1672 39.7642 38.5417 40.0049C38.0361 40.7086 37.7178 41.579 37.7178 42.5049C37.7178 44.8937 39.6652 46.8196 42.0808 46.8196C44.4964 46.8196 46.4626 44.8937 46.4626 42.5049C46.4626 41.6715 46.2192 40.8753 45.7885 40.2271H49.4587H60.8814V41.1345H59.3833V42.4123H60.8814V43.7271H59.3833V46.153H60.8814V45.0604H63.091V46.153H64.5703V43.7271H63.091V42.4123H64.5703V41.1345H63.091V40.2271H66.0684C66.6489 40.2271 67.117 39.7457 67.117 39.1716V38.5235C67.117 37.9494 66.6489 37.4679 66.0684 37.4679ZM44.3466 42.5049C44.3466 43.7271 43.3354 44.7271 42.0808 44.7271C40.8449 44.7271 39.8338 43.7271 39.8338 42.5049C39.8338 42.0604 39.9648 41.6345 40.2083 41.2827L40.8262 40.2271C40.433 39.8938 40.1896 39.3938 40.1896 38.8383C40.1896 38.2827 40.433 37.7827 40.8262 37.4494L40.2083 36.3939C39.9648 36.042 39.8338 35.6346 39.8338 35.1717C39.8338 33.9495 40.8449 32.9495 42.0808 32.9495C43.3354 32.9495 44.3466 33.9495 44.3466 35.1717C44.3466 36.079 43.298 38.2457 43.298 38.2457V39.4123C43.298 39.4308 44.3466 41.5975 44.3466 42.5049Z" fill="white"/>
<path fill-rule="evenodd" clip-rule="evenodd" d="M8.81738 34.8399V40.2287C8.81738 45.3768 11.0832 48.6915 12.394 49.9693C13.1617 50.71 20.9141 58.2469 21.0265 58.358C23.4421 60.6913 23.8541 61.4691 24.3971 62.7839V56.821C24.3971 51.5063 21.6819 49.4508 20.2775 48.099C17.0192 44.9509 14.8283 42.8768 13.0681 41.1361C9.69749 37.8213 8.81738 34.8399 8.81738 34.8399Z" fill="white"/>
<path fill-rule="evenodd" clip-rule="evenodd" d="M20.2587 61.4136C17.0005 58.247 14.8096 56.1914 13.0494 54.4507C9.69749 51.136 8.81738 48.8953 8.81738 48.8953V53.5433C8.81738 58.6914 11.1768 61.9691 12.3753 63.321C13.143 64.0617 20.9141 71.5801 21.0078 71.6727C23.4234 74.006 23.8353 75.1171 24.3784 76.4318V70.1357C24.3784 64.8209 21.6444 62.7654 20.2587 61.4136Z" fill="white"/>
<path fill-rule="evenodd" clip-rule="evenodd" d="M37.4512 10.5643C36.852 10.5643 36.2528 10.5829 35.6536 10.6014V13.1198C36.2341 13.0828 36.8333 13.0643 37.4512 13.0643C56.7199 13.0643 72.3371 28.5085 72.3371 47.5823C72.3371 66.6375 56.7199 82.0817 37.4512 82.0817C18.1826 82.0817 2.54669 66.6375 2.54669 47.5823C2.54669 37.0083 7.35917 27.5455 14.943 21.2123V17.9901C5.86112 24.7493 0 35.4899 0 47.5823C0 68.0264 16.7594 84.6002 37.4512 84.6002C58.1243 84.6002 74.8838 68.0264 74.8838 47.5823C74.8838 27.1567 58.1243 10.5643 37.4512 10.5643Z" fill="white"/>
<path fill-rule="evenodd" clip-rule="evenodd" d="M63.9326 66.9289C64.5131 66.1511 65.0561 65.3363 65.5805 64.503V59.5401H63.9326V66.9289Z" fill="white"/>
<path fill-rule="evenodd" clip-rule="evenodd" d="M68.7401 57.7282C68.9835 57.0059 69.1895 56.2837 69.3767 55.5615H63.9463V56.8763H64.7702C66.1934 56.8393 67.8225 56.8208 68.7401 57.7282Z" fill="white"/>
<path d="M32.5633 55.3757H31.084V70.1348H32.5633V55.3757Z" fill="white"/>
<path fill-rule="evenodd" clip-rule="evenodd" d="M27.6922 52.5404H32.5609C33.8155 52.5404 34.6956 52.7996 35.2012 53.2811C35.7068 53.7626 35.9502 54.6329 35.9502 55.8737V69.6697C35.9502 70.9105 35.7068 71.7808 35.2012 72.2623C34.4334 73.0215 33.0103 73.0215 31.8306 73.0215C31.5684 73.003 31.3063 73.003 31.0815 73.003V79.5399C31.5684 79.6325 32.0553 79.7251 32.5609 79.7992V74.4289C34.808 74.4289 36.2685 73.6697 36.9614 72.1512V80.151C37.1112 80.151 37.2797 80.151 37.4483 80.151C37.7666 80.151 38.0662 80.151 38.3845 80.1325V56.1144C38.3845 54.8367 38.6467 53.9478 39.1336 53.4478C39.6204 52.9293 40.5005 52.6885 41.7364 52.6885C42.991 52.6885 44.8449 52.5034 45.7999 53.4478C46.2868 53.9478 46.5115 54.8552 46.5115 56.1144V63.1884H43.1783V55.6329H41.7364V79.8733C42.2233 79.8177 42.6914 79.7437 43.1783 79.6511V64.6143H46.5115V78.8918C47.2043 78.7066 47.8784 78.4844 48.5525 78.2437V65.1698C48.5525 63.6884 48.9083 62.5773 50.4438 62.0588L48.7585 52.9663H52.1291L52.6909 62.8921H53.1029L53.6646 52.9663H57.2225L55.3125 62.0588C56.9042 62.6143 57.2225 63.5773 57.2225 65.1698V73.6141C58.215 72.8734 59.1513 72.0956 60.0501 71.2438V52.8922H69.9185C69.9934 52.4478 70.0496 52.0219 70.1057 51.5589H46.9796L47.2979 53.2071C46.5676 51.8737 45.1819 51.2071 43.1408 51.2071H41.699C39.2459 51.2071 37.7479 52.17 37.1861 54.0959C36.6618 52.0774 35.1076 51.0775 32.5422 51.0775H26.2129V78.2066C26.6998 78.3733 27.1866 78.54 27.6735 78.6881V52.5404H27.6922ZM58.3835 62.9661L56.7918 61.4662L58.3835 53.3182V62.9661Z" fill="white"/>
<path fill-rule="evenodd" clip-rule="evenodd" d="M52.1104 76.7446C52.6159 76.4854 53.1215 76.2261 53.6271 75.9483V64.7819H52.1104V76.7446Z" fill="white"/>
</svg>
